<svg id="flat" height="512" viewBox="0 0 500 500" width="512" xmlns="http://www.w3.org/2000/svg"><path d="m341.215 91.6h25.214a11.762 11.762 0 0 1 10.757 7.006l22.544 51.012-25.641 22.285z" fill="#4f424c"/><path d="m213.532 431.08-37.26-.08c-22.022-3.85-45.595-3.976-70.81-.16l-25.612-.06-25.672-216.98 66.113-106.933 113.083 153.5z" fill="#e89599"/><path d="m217.494 261.335c-9.906.39-12.873 1.946-22.172 5.382 9.684 91.912-50.7 94.5-50.7 94.5s-25.894 37.427-36 36.846l-32.87-1.891 4.098 34.608 25.612.057c25.215-3.816 48.788-3.69 70.81.16l37.26.083 19.706-169.54a120.453 120.453 0 0 0 -15.744-.205z" fill="#bf727e"/><path d="m226.364 274.38v153.087a42.1 42.1 0 0 1 20.561 3.571l65.16-.238 25.115-156.42z" fill="#bf727e"/><path d="m110.263 255.716c-.108 1.121-.178 2.244-.227 3.368h111.52l-72.218-106.684h-26.076c17.793 20.805 16.231 52.443 2.1 74.849-8.891 14.633-23.892 26.989-41.014 27.085z" fill="#bf727e"/><g fill="#4f424c"><path d="m312.085 430.791 24.773-.09-1.588-60.022-4.651-10.023-18.534 11.93a489.833 489.833 0 0 1 0 58.205z"/><path d="m284.688 243.376c-2.963 1.4-19.066 28.231-8.783 43.241 3.8 5.552 14.6 7.554 10.933 15.815-2.769 6.239-8.762 11.813-12.994 17.117-4.173 5.231-8.523 10.436-11.108 16.677-3.832 9.249-2.411 24.974 6.87 30.93 7.646 4.907 15.837 3.981 21.385 2.327a8.27 8.27 0 0 1 9.353 3.628c10.973 19.406 51.956 3.268 58.441-21.587 4.106-12.34 3.814-25.917 3.317-38.746-.563-14.532-.93-30.5-7.179-43.887l-.018-.022-43.886-30.3a51.958 51.958 0 0 0 -26.331 4.807z"/><path d="m79.85 213.8-13.907-19.029-11.765 19.029s-.046 12.259.158 31.114h25.514z"/><path d="m334.72 340.59c-3.114 29.918-4.852 60.043-5.643 90.148l68.862-.252s18.109-74.759 14.692-121.756l-157.752-108.93c-5.019 3.379-10.072 6.684-15.126 10-14.577-19.454-33.485-37.078-49.994-54.968l-69.467-47.967-66.114 106.935s-.641 167.885 13.2 216.952l12.469.028v-157.9h138.3v156.17c5.728-1.749 11.465-.691 17.208 2.03l11.572-.042v-152.146l105.392 1.276c-2.593 8.873-15.469 49.947-17.599 60.422zm-275.455-97.555c18-27.349 33.9-54.085 51.9-81.434l16.933-2.493 64.317 84.539z"/><path d="m393.975 295.847-11.693-8.074c-109.054.073-218.1.448-327.155.383q.1 3.635.2 7.346c112.886.375 225.766-.002 338.648.345z"/><path d="m269.379 209.813q-106.481.093-212.962.367l-2.239 3.62s0 1.368 0 3.881c75.592-.252 151.158.06 226.745.1z"/><path d="m228.277 181.432q-77.131.1-154.264.286l-4.637 7.5c56.777-.2 113.533.052 170.306.088z"/><path d="m189.2 154.452q-49.226.076-98.451.191l-4.637 7.5c38.11-.125 76.206.017 114.313.058z"/><path d="m412.9 330.151q.15-4.149.161-8.173c-118.93.085-237.854.484-356.784.419q.153 3.677.321 7.362c118.765.364 237.529-.028 356.302.392z"/><path d="m409.826 365.3c.349-2.7.677-5.426.984-8.159-117.569.072-235.131.5-352.7.406q.242 3.723.5 7.384c117.077.321 234.143-.024 351.216.369z"/><path d="m404.25 400.329c.486-2.6.977-5.32 1.468-8.132-114.9.051-229.789.506-344.688.39q.408 3.8.848 7.414c114.128.254 228.246-.013 342.372.328z"/><path d="m106.252 288.689q-3.169 71-.79 142.128l70.811.184-.388-142.312z"/></g><path d="m335.126 430.738h-12.126a526.928 526.928 0 0 0 .935-58.7 19.754 19.754 0 0 1 16.154-1.378c13.257 21.367 6.111 54.572-4.963 60.078z" fill="#e8ac95"/><path d="m351.847 381.219c-3.053-5.452-7.222-8.9-11.765-10.54a265.665 265.665 0 0 1 1.513 35.169c-.162 8.678-1.007 17.849-6.469 24.89h17.39c-.616-16.238-.836-32.893-.669-49.519z" fill="#ad7166"/><path d="m323.93 371.782c9.614 1.516 18.728 5.468 27.928 9.185.151-15.017.608-30.015 1.391-44.676l-31.318 5.99q1.417 14.719 1.999 29.501z" fill="#4f424c"/><path d="m416.621 373.5-4.676-4.556-12.97 5.561a526.725 526.725 0 0 1 -1.036 55.981h16.305s5.969-5.605 6.6-22.62-4.223-34.366-4.223-34.366z" fill="#e8ac95"/><path d="m79.85 260.369h118.817l6.339-9.225-16.139-12.258h-109.017a41.8 41.8 0 0 0 0 21.483z" fill="#bf727e"/><path d="m198.667 260.369h22.478v-21.483h-32.278c4.998 6.424 10.068 12.872 9.8 21.483z" fill="#4f424c"/><path d="m426.762 383.38-10.141-9.88c.459 18.862 5.268 39.077-2.377 56.986h13.209c-.584-15.458-.814-31.286-.691-47.106z" fill="#ad7166"/><path d="m61.371 238.886h18.479v21.482h-18.479z" fill="#4f424c"/><path d="m329.948 92.63q-34.563 0-69.3.193c-1.344 1.436-3.852 1.137-6.9.034q-27.933.139-55.881.3c-2.309 1.387-5.071 1.5-8.388.041q-21.615.105-43.188.164c-2.33 1.23-3.021 1.117-6.447.019-6.339.011-14.947.018-21.275.018 0 0 39.343 85.684 135.728 172.351h13.137a9.683 9.683 0 0 1 6.577 0h56.311z" fill="#e89599"/><path d="m329.948 92.631q-34.563 0-69.3.192a3.789 3.789 0 0 1 -3.264.929c18.262 20.132 30.072 53.094 14.489 77.585-9.723 13.724-28.862 18.718-40.548 30.04l39.455 64.368h59.543z" fill="#bf727e"/><path d="m151.961 107.377c6.087 6.988 33.555 41.205 40.452 47.394 2.077 1.864 4.651-.5 2.925-3.064-11.4-15.522-36.245-44.373-49.05-58.351-2.909.007-3.54.009-6.447.014 3.992 5.236 8.025 9.306 12.12 14.007z" fill="#4f424c"/><path d="m267.431 265.745h6.577c-17.451-30.029-35.976-59.4-55.867-87.818-1.652-2.264-5.349-.268-3.846 2.248 17.721 28.539 35.793 56.76 53.136 85.57z" fill="#4f424c"/><path d="m278.891 243.08c-14.7-27.074-30.118-54.184-49.155-78.485-1.42-1.778-4.242.507-3.111 2.4 20.253 32.316 40.5 64.612 57.632 98.75h5.887c-3.179-7.766-7.367-15.31-11.253-22.665z" fill="#4f424c"/><path d="m211.024 147.1a12.614 12.614 0 0 0 3.049 3.36 1.959 1.959 0 0 0 2.84-2.184 12.531 12.531 0 0 0 -2.576-3.733c-1.654-1.715-4.57.52-3.313 2.557z" fill="#4f424c"/><path d="m224.015 132.922c13.965 17.226 25.707 35.36 38.908 53.1a2.345 2.345 0 0 0 4.047-2.366c-4.976-10.113-11.026-16.72-17.419-25.984-15.843-22.593-32.63-44.335-51.687-64.521l-8.388.039c11.643 13.126 23.6 25.94 34.539 39.732z" fill="#4f424c"/><path d="m310.2 264.5c-3.68-9.914-8.858-19.436-13.671-28.841-4.944-9.663-9.552-20.408-16.159-29.047-1.138-1.488-4.1-.737-3.341 1.408 3.472 9.873 9.35 19.214 14.06 28.556 4.885 9.689 9.3 19.809 14.8 29.167h4.377a1.916 1.916 0 0 0 -.066-1.243z" fill="#4f424c"/><path d="m243.766 116.651c12.2 19.145 24.344 38.332 35.875 57.888 3.817 6.452 7.3 13.406 11.672 19.486a2.439 2.439 0 0 0 4.209-2.46c-2.952-6.863-7.26-13.415-11.073-19.836-11.624-19.535-23.927-38.671-37.3-57.053-1.45-2-4.758-.19-3.379 1.975z" fill="#4f424c"/><path d="m279.442 130.471c10.487 16.229 20.124 33.016 30.811 49.108a2.251 2.251 0 0 0 3.885-2.271c-15.1-29.783-34.027-57.307-53.494-84.482q-3.45.017-6.9.032c8.298 12.689 17.493 24.917 25.698 37.613z" fill="#4f424c"/><path d="m290.752 108.381c10.815 13.841 20.134 28.582 30 43.08a2.005 2.005 0 0 0 3.461-2.022c-8.22-15.815-19.149-30.371-30.292-44.223-1.815-2.257-4.911.931-3.165 3.165z" fill="#4f424c"/><path d="m67.786 237.574v193.506l-21.82-.532v-158.112c6.257-15.706 13.603-27.036 21.82-34.862z" fill="#bf727e"/><path d="m45.966 272.436 21.82-34.862v-47.586l-21.82 33.529z" fill="#4f424c"/><path d="m235.353 278.672v152.408h-21.821v-157.466l8.231-3.307z" fill="#bf727e"/><path d="m235.353 254.366-21.821-18.948v38.2a12.117 12.117 0 0 0 9.434 4.823l12.387.235z" fill="#4f424c"/><path d="m254.294 265.745s-24.667.915-32.381-4.226a20.512 20.512 0 0 1 -6.391-6.6c-28.79-49.446-96.533-128.059-96.533-128.059s-51.455 74.948-78.259 125.57c-2.151 4.063-4.552 8.406-8.71 10.368-6.668 3.147-26.267.831-26.267.831s54.211-108.414 112.813-170.235c0 0 93.85 105.417 135.728 172.351z" fill="#bf727e"/><path d="m398.971 374.505q13.866 5.018 27.789 9.87c.111-16.155.584-32.314 1.426-48.084l-31.318 5.99q1.548 16.074 2.103 32.224z" fill="#4f424c"/><path d="m482.487 323.752c-11.042-15.086-18.4-31.434-24-48.53 8.366 2.458 16.821 1.708 19.005-9.627 1.349-7-5.846-12.656-9.3-18.646a234.566 234.566 0 0 1 -22.561-53.959c3.177 3.009 6.12 6.388 10.444 7.421 9.935 1.506 9.944-9.8 6.853-16.9-5.918-15.848-14.157-30.439-20.441-46.1-7.945-19.8-13.474-42.671-21.585-63.037-2.812-7.061-11.537-7.318-14.694-.448-11.193 24.357-21.627 60.351-31.989 80.857l-25.99 121.249 68 68.847c6.066 13.7 27.28 25.663 34.5.072 11.156 5.63 38.675 16.6 43.493-2.617 1.759-7.018-7.369-12.616-11.735-18.582z" fill="#4f424c"/><path d="m364.128 137.537c-5.592-13.937-11.5-44.555-11.5-44.555-2.08-6.327-4.255-12.578-6.658-18.611-2.812-7.061-11.537-7.318-14.694-.448-11.193 24.357-21.627 60.351-31.989 80.857-4.782 10.06-19.391 32.9-9.943 42.961 3.087 2.79 5.9 1.254 8.476-.221l9.807-5.614c-7.934 35.152-34.14 59.546-26.26 79.813 1.763 4.534 6.012 4.713 10.7 3.122-6.431 19.681-18.572 35.934-24.964 49.959 0 0-6.138 30.636 35.806 8.449 0 0 15.523 29.121 37.517 1.5 0 0 15.9 31.6 32.39 3.42 0 0 41.486 18.786 21.46-25.668l-18.233-42.3 18.69-6.094-27.906-74.793 12.084-7.875z" fill="#7bb7b7"/><path d="m407.55 323.752c-11.042-15.086-18.4-31.434-24-48.53 8.366 2.458 16.821 1.708 19-9.627 1.349-7-5.846-12.656-9.3-18.646a234.522 234.522 0 0 1 -22.561-53.959c3.177 3.009 6.12 6.388 10.444 7.421 9.938 1.51 9.941-9.81 6.853-16.9-5.918-15.848-14.157-30.439-20.441-46.1-5.592-13.937-9.99-29.392-14.93-44.425 3.829 23.451 5.955 46.38 14.855 68.624 5.838 14.591 3.376 21.067-.767 22.348-3.4-2.471-6.323-5.833-10.814-6.027-6.452-.279-9.043 5.288-12.47 9.6-3.787 4.762-6.026 1.72-9.193-1.641-6.354-7.206-15.292-7.042-20.554 1.3-.945 1.44 1.011 3.577 2.469 2.469 7.775-7.009 10.771-3.283 16.177 3.762 3.381 3.626 8.019 4.775 12.366 2.03 3.831-2.419 7.312-12.262 12.02-10.318 9.946 4.108 17.081 44.4 26.222 64.747a8.428 8.428 0 0 1 -5.432 11.879c-6.275 1.641-10.411-5.9-14.557-7.384-8.7-3.107-16.211 5.111-21.469 10.908-2.474 2.728-6.761 10.415-11.213 9.285-4.132-1.049-6.152-7.09-8.716-10.038-6.614-7.6-15.833-4.415-22.04 1.961-2.268 2.33.645 6.308 3.522 4.565 11.79-7.991 12.546-3.842 19.468 5.836 4.54 4.927 11.069 5.846 16.388 1.62 2.909-2.312 5.078-5.51 7.625-8.195 2.893-3.051 6.643-9.11 11.008-9.153 11.038-.11 28.39 46.38 35.045 62.484 1.976 4.781-1.468 18.126-16.315 7.793a3.919 3.919 0 0 0 -5.49 1.574c-4.368 7.708-16.643 17.88-27.012-3.009a4.084 4.084 0 0 0 -7.114-.35c-10.6 17.289-23.854 8.16-27.912-3.014a4.08 4.08 0 0 0 -6.477-1.8c-20.291 17.276-31.178 9.932-35.137-.036-4.1 9-5.844 17.092-2.172 24.577 6.084 12.4 36.158-8.043 36.158-8.043.921.669 5.66 15.811 16.772 16.079 15.761.381 19.9-8.952 23.429-12.541 6.066 13.7 27.281 25.663 34.5.072 11.156 5.63 38.675 16.6 43.493-2.617 1.766-7.017-7.362-12.616-11.728-18.581z" fill="#4d8489"/><path d="m116.468 95.628c49.654 53.716 95.543 111.579 134.884 173.275 1.953 3.238 7.03.292 5.079-2.968-16.2-27.056-35.949-51.956-55.258-76.817-25.765-32.551-51.35-65.576-79.877-95.724h-2.73z" fill="#4f424c"/><path d="m6.957 265.808c6.848 1.563 16.633 3.081 23.4.574 16.644-7.407 30.524-39.7 41.08-54.993 1.583-2.466-2.2-5.5-4.124-3.182-13.413 15.926-20.069 37.084-35.883 51.05-6.619 5.355-16.156 1.976-23.955 2.73-2.037.2-2.813 3.3-.518 3.821z" fill="#4f424c"/><path d="m73.308 241.5c20.408 1.577 41.073.223 61.538.695h29.777c10.094 0 20.461.692 30.471-.793 2.5-.37 2.5-4.67 0-5.04-10.01-1.485-20.377-.794-30.471-.793-19.851.006-39.7-.014-59.553.085-10.49.045-21.333-.587-31.762.615a2.615 2.615 0 0 0 0 5.231z" fill="#4f424c"/><path d="m269.893 196.353a7.2 7.2 0 0 0 1.82 2.287 1.959 1.959 0 0 0 2.84-2.184 7.14 7.14 0 0 0 -1.347-2.659c-1.654-1.716-4.57.519-3.313 2.556z" fill="#4f424c"/></svg>