<svg height="512" viewBox="0 0 64 64" width="512" xmlns="http://www.w3.org/2000/svg"><g id="Layer_42" data-name="Layer 42"><path d="m22.7 23.8a2 2 0 0 0 -2.109-.068l-1.522.879 6.35 7.24 4.689-3.113z" fill="#9bc9ff"/><path d="m54 42a4 4 0 0 1 4-3.994v-3.54l-37.05 21.394a4.006 4.006 0 0 1 -5.47-1.47l-4-6.93a3.981 3.981 0 0 0 -2.01-7.44h-.005a3.979 3.979 0 0 1 -3.465 5.98v8a4.007 4.007 0 0 0 4 4h44a4.007 4.007 0 0 0 4-4v-8a4 4 0 0 1 -4-4z" fill="#9bc9ff"/><path d="m31.072 45.392 1.522-.879a2 2 0 0 0 1-1.86l-.573-8.885-5.04 2.505z" fill="#9bc9ff"/><path d="m15.912 39.134 1 1.732 3.098-.634-2-3.464z" fill="#9bc9ff"/><path d="m30.33 28.59-.219.145h.006-.006l-4.689 3.113-7.412 4.92 2 3.464 7.967-3.959v-.005.005l5.04-2.505.235-.117a4 4 0 0 0 1.718-1.64l2.23-4.011-4.587-.077a4 4 0 0 0 -2.283.667z" fill="#9bc9ff"/><path d="m38.588 11.34h8v4h-8z" fill="#9bc9ff" transform="matrix(.866 -.5 .5 .866 -.964 23.081)"/><g fill="#1e81ce"><path d="m34.161 15.742a1 1 0 0 1 -.867-.5l-.5-.867a1 1 0 0 1 1.732-1l.5.867a1 1 0 0 1 -.865 1.5z"/><path d="m37.213 27-4.587-.077a4.843 4.843 0 0 0 -2.486.629l-6.882-4.587a2.98 2.98 0 0 0 -3.164-.1l-1.522.879a1 1 0 0 0 -.252 1.525l5.6 6.38-2.71 1.8-1.865-1.265a3.024 3.024 0 0 0 -3.185-.117l-.646.374a1 1 0 0 0 -.366 1.366l1.639 2.84-1.623 1.823a1 1 0 0 0 -.119 1.164l1 1.732a1 1 0 0 0 .867.5 1.051 1.051 0 0 0 .2-.02l2.392-.49 1.64 2.84a1 1 0 0 0 1.366.366l.646-.373a3.02 3.02 0 0 0 1.492-2.816l-.164-2.248 2.916-1.448 2.728 8.036a1 1 0 0 0 1.447.545l1.522-.879a2.982 2.982 0 0 0 1.494-2.791l-.532-8.254a4.958 4.958 0 0 0 1.785-1.834l2.227-4.011a1 1 0 0 0 -.858-1.489zm-16.586-2.135.467-.27a1 1 0 0 1 1.055.034l6.157 4.1-2.709 1.8zm-2.409 8.971 1.187.806-1.061.7-.951-1.642a1 1 0 0 1 .825.136zm-1.08 5.422.7-.789.613 1.061-1.033.212zm5.515 2.261a1.006 1.006 0 0 1 -.294.782l-.951-1.647 1.141-.567zm9.441 2.128-.467.27-2.427-7.138 2.912-1.446.476 7.384a.992.992 0 0 1 -.494.93zm2-12.122a2.987 2.987 0 0 1 -1.287 1.231l-12.4 6.162-1.06-1.836 11.537-7.659a2.905 2.905 0 0 1 1.71-.5l2.92.049z"/><path d="m61.38 27.89-4-6.93a.99.99 0 0 0 -.6-.46 1.007 1.007 0 0 0 -.76.1 3 3 0 0 1 -4.1-1.1 3 3 0 0 1 1.1-4.1.983.983 0 0 0 .46-.61.945.945 0 0 0 -.1-.75l-4-6.93a5 5 0 0 0 -6.83-1.83l-38.1 22a5 5 0 0 0 -1.83 6.83l4 6.93a.99.99 0 0 0 .6.46 1.007 1.007 0 0 0 .76-.1 3.3 3.3 0 0 1 .86-.32 2.87 2.87 0 0 1 .16.92 3.009 3.009 0 0 1 -3 3 1 1 0 0 0 -1 1v8a5 5 0 0 0 5 5h44a5 5 0 0 0 5-5v-8a1 1 0 0 0 -1-1 3 3 0 0 1 0-6 1 1 0 0 0 1-1v-2.96l.55-.32a5 5 0 0 0 1.83-6.83zm-51.38 29.11a3.009 3.009 0 0 1 -3-3v-7.1a5.009 5.009 0 0 0 4-4.9c0-.2-.02-.4-.04-.6a2.956 2.956 0 0 1 1.12 1.1 3 3 0 0 1 -1.1 4.1.983.983 0 0 0 -.46.61.945.945 0 0 0 .1.75l4 6.93a4.973 4.973 0 0 0 2.44 2.11zm47-19.9a5 5 0 0 0 0 9.8v7.1a3.009 3.009 0 0 1 -3 3h-11v-1a1 1 0 0 0 -2 0v1h-20.11a4.873 4.873 0 0 0 .56-.28l19.63-11.33a1 1 0 0 0 1.92-.39v-.72l14-8.08zm1.55-4.11-9.52 5.5-.5-.87a1 1 0 0 0 -1.74 1l.5.87-26.84 15.5a3 3 0 0 1 -4.1-1.1l-3.55-6.15a4.854 4.854 0 0 0 1.51-2.45 4.992 4.992 0 0 0 -6.41-6.03l-3.55-6.15a3 3 0 0 1 1.1-4.1l38.1-22a3 3 0 0 1 4.1 1.1l3.55 6.15a4.854 4.854 0 0 0 -1.51 2.45 4.992 4.992 0 0 0 6.41 6.03l3.55 6.15a3 3 0 0 1 -1.1 4.1z"/><path d="m35.294 18.706a1 1 0 0 0 .867.5.983.983 0 0 0 .5-.135 1 1 0 0 0 .366-1.365l-.5-.866a1 1 0 0 0 -1.732 1z"/><path d="m39.026 21.17-.5-.866a1 1 0 0 0 -1.732 1l.5.866a1 1 0 0 0 1.732-1z"/><path d="m41.026 24.634-.5-.866a1 1 0 0 0 -1.732 1l.5.866a1 1 0 0 0 1.732-1z"/><path d="m43.026 28.1-.5-.866a1 1 0 0 0 -1.732 1l.5.866a1 1 0 0 0 1.732-1z"/><path d="m45.026 31.562-.5-.866a1 1 0 0 0 -1.732 1l.5.866a1 1 0 0 0 1.732-1z"/><path d="m46.526 34.16a1 1 0 0 0 -1.732 1l.5.866a1 1 0 1 0 1.732-1z"/><path d="m39.258 17.572a1 1 0 0 0 1.367.366l6.928-4a1 1 0 0 0 .366-1.366l-2-3.464a1 1 0 0 0 -1.366-.366l-6.928 4a1 1 0 0 0 -.367 1.366zm5.429-6.6 1 1.732-5.2 3-1-1.732z"/><path d="m55.919 26.428a1 1 0 0 0 -1.366-.366l-6.928 4a1 1 0 1 0 1 1.732l6.928-4a1 1 0 0 0 .366-1.366z"/><path d="m56.553 29.526-6.928 4a1 1 0 1 0 1 1.732l6.928-4a1 1 0 0 0 -1-1.732z"/><path d="m42 47a1 1 0 0 0 -1 1v1a1 1 0 0 0 2 0v-1a1 1 0 0 0 -1-1z"/><path d="m42 51a1 1 0 0 0 -1 1v1a1 1 0 0 0 2 0v-1a1 1 0 0 0 -1-1z"/><path d="m54 53h-7a1 1 0 0 0 0 2h7a1 1 0 0 0 0-2z"/><path d="m47 51h7a1 1 0 0 0 0-2h-7a1 1 0 0 0 0 2z"/></g></g></svg>