<svg id="Capa_1" enable-background="new 0 0 510 510" height="512" viewBox="0 0 510 510" width="512" xmlns="http://www.w3.org/2000/svg" xmlns:xlink="http://www.w3.org/1999/xlink"><linearGradient id="lg1"><stop offset="0" stop-color="#4a98f7"/><stop offset="1" stop-color="#0469bc"/></linearGradient><linearGradient id="SVGID_1_" gradientUnits="userSpaceOnUse" x1="5.33" x2="133.449" xlink:href="#lg1" y1="281.422" y2="442.963"/><linearGradient id="SVGID_2_" gradientUnits="userSpaceOnUse" x1="390.648" x2="511.387" xlink:href="#lg1" y1="307.987" y2="428.725"/><linearGradient id="lg2"><stop offset="0" stop-color="#0469bc" stop-opacity="0"/><stop offset="1" stop-color="#0469bc"/></linearGradient><linearGradient id="SVGID_3_" gradientUnits="userSpaceOnUse" x1="484.499" x2="330.904" xlink:href="#lg2" y1="359.567" y2="359.567"/><linearGradient id="SVGID_4_" gradientUnits="userSpaceOnUse" x1="143.752" x2="526.171" xlink:href="#lg1" y1="196.093" y2="578.512"/><linearGradient id="SVGID_5_" gradientUnits="userSpaceOnUse" x1="214.92" x2="15.98" y1="287.013" y2="148.59"><stop offset="0" stop-color="#18cffc" stop-opacity="0"/><stop offset="1" stop-color="#65e1dc"/></linearGradient><linearGradient id="SVGID_6_" gradientUnits="userSpaceOnUse" x1="375.085" x2="257.291" xlink:href="#lg1" y1="200.527" y2="145.227"/><linearGradient id="SVGID_7_" gradientUnits="userSpaceOnUse" x1="375.085" x2="257.291" xlink:href="#lg1" y1="283.245" y2="227.945"/><linearGradient id="SVGID_8_" gradientUnits="userSpaceOnUse" x1="375.085" x2="257.291" xlink:href="#lg1" y1="365.963" y2="310.662"/><linearGradient id="SVGID_9_" gradientUnits="userSpaceOnUse" x1="208.451" x2="90.657" xlink:href="#lg1" y1="200.527" y2="145.227"/><linearGradient id="SVGID_10_" gradientUnits="userSpaceOnUse" x1="208.451" x2="90.657" xlink:href="#lg1" y1="283.245" y2="227.945"/><linearGradient id="SVGID_11_" gradientUnits="userSpaceOnUse" x1="208.451" x2="90.657" xlink:href="#lg1" y1="365.963" y2="310.662"/><linearGradient id="SVGID_12_" gradientUnits="userSpaceOnUse" x1="291.768" x2="173.974" xlink:href="#lg1" y1="200.527" y2="145.227"/><linearGradient id="SVGID_13_" gradientUnits="userSpaceOnUse" x1="291.768" x2="173.974" xlink:href="#lg1" y1="283.245" y2="227.945"/><linearGradient id="SVGID_14_" gradientUnits="userSpaceOnUse" x1="291.768" x2="173.974" xlink:href="#lg1" y1="365.963" y2="310.662"/><linearGradient id="SVGID_15_" gradientUnits="userSpaceOnUse" x1="268.85" x2="235.202" xlink:href="#lg2" y1="180.1" y2="14.139"/><linearGradient id="SVGID_16_" gradientUnits="userSpaceOnUse" x1="309.229" x2="126.859" xlink:href="#lg2" y1="277.377" y2="6.083"/><linearGradient id="SVGID_17_" gradientUnits="userSpaceOnUse" x1="307.362" x2="288.302" xlink:href="#lg2" y1="492.719" y2="422.378"/><linearGradient id="lg3"><stop offset="0" stop-color="#f9f7fc"/><stop offset="1" stop-color="#f0ddfc"/></linearGradient><linearGradient id="SVGID_18_" gradientUnits="userSpaceOnUse" x1="199.839" x2="376.553" xlink:href="#lg3" y1="436.134" y2="519.095"/><linearGradient id="lg4"><stop offset="0" stop-color="#f0ddfc" stop-opacity="0"/><stop offset=".2889" stop-color="#c8b7e0" stop-opacity=".289"/><stop offset=".5915" stop-color="#a595c8" stop-opacity=".592"/><stop offset=".8395" stop-color="#8f81b8" stop-opacity=".84"/><stop offset="1" stop-color="#8779b3"/></linearGradient><linearGradient id="SVGID_19_" gradientUnits="userSpaceOnUse" x1="269.989" x2="232.618" xlink:href="#lg4" y1="471.239" y2="350.391"/><linearGradient id="SVGID_20_" gradientUnits="userSpaceOnUse" x1="258.005" x2="235.684" y1="473.67" y2="428.097"><stop offset="0" stop-color="#e9edf5" stop-opacity="0"/><stop offset="1" stop-color="#fff"/></linearGradient><linearGradient id="SVGID_21_" gradientUnits="userSpaceOnUse" x1="287.784" x2="191.724" xlink:href="#lg4" y1="463.581" y2="433.621"/><linearGradient id="lg5"><stop offset="0" stop-color="#ffda45"/><stop offset="1" stop-color="#ffa425"/></linearGradient><linearGradient id="SVGID_22_" gradientUnits="userSpaceOnUse" x1="254.999" x2="254.999" xlink:href="#lg5" y1="407.47" y2="421.14"/><linearGradient id="SVGID_23_" gradientTransform="matrix(-1 0 0 -1 4766 -1469.342)" gradientUnits="userSpaceOnUse" x1="4625.21" x2="4526.243" xlink:href="#lg3" y1="-1803.539" y2="-1850"/><linearGradient id="SVGID_24_" gradientTransform="matrix(-1 0 0 -1 4766 -1469.342)" gradientUnits="userSpaceOnUse" x1="4625.21" x2="4526.243" xlink:href="#lg3" y1="-1720.821" y2="-1767.282"/><linearGradient id="SVGID_25_" gradientTransform="matrix(-1 0 0 -1 4766 -1469.342)" gradientUnits="userSpaceOnUse" x1="4625.209" x2="4526.243" xlink:href="#lg3" y1="-1638.104" y2="-1684.565"/><linearGradient id="SVGID_26_" gradientTransform="matrix(-1 0 0 -1 4766 -1469.342)" gradientUnits="userSpaceOnUse" x1="4458.576" x2="4359.609" xlink:href="#lg3" y1="-1803.539" y2="-1850"/><linearGradient id="SVGID_27_" gradientTransform="matrix(-1 0 0 -1 4766 -1469.342)" gradientUnits="userSpaceOnUse" x1="4458.576" x2="4359.609" xlink:href="#lg3" y1="-1720.821" y2="-1767.282"/><linearGradient id="SVGID_28_" gradientTransform="matrix(-1 0 0 -1 4766 -1469.342)" gradientUnits="userSpaceOnUse" x1="4458.575" x2="4359.609" xlink:href="#lg3" y1="-1638.104" y2="-1684.565"/><linearGradient id="SVGID_29_" gradientTransform="matrix(-1 0 0 -1 4766 -1469.342)" gradientUnits="userSpaceOnUse" x1="4541.893" x2="4442.926" xlink:href="#lg3" y1="-1803.539" y2="-1850"/><linearGradient id="SVGID_30_" gradientTransform="matrix(-1 0 0 -1 4766 -1469.342)" gradientUnits="userSpaceOnUse" x1="4541.893" x2="4442.926" xlink:href="#lg3" y1="-1720.821" y2="-1767.282"/><linearGradient id="SVGID_31_" gradientTransform="matrix(-1 0 0 -1 4766 -1469.342)" gradientUnits="userSpaceOnUse" x1="4541.892" x2="4442.926" xlink:href="#lg3" y1="-1638.104" y2="-1684.565"/><linearGradient id="lg6"><stop offset="0" stop-color="#7e8595"/><stop offset="1" stop-color="#555a66"/></linearGradient><linearGradient id="SVGID_32_" gradientUnits="userSpaceOnUse" x1="112.346" x2="119.666" xlink:href="#lg6" y1="89.081" y2="89.081"/><linearGradient id="SVGID_33_" gradientUnits="userSpaceOnUse" x1="150.464" x2="157.784" xlink:href="#lg6" y1="89.081" y2="89.081"/><linearGradient id="SVGID_34_" gradientUnits="userSpaceOnUse" x1="196.997" x2="204.317" xlink:href="#lg6" y1="89.081" y2="89.081"/><linearGradient id="SVGID_35_" gradientUnits="userSpaceOnUse" x1="257.113" x2="264.433" xlink:href="#lg6" y1="89.081" y2="89.081"/><linearGradient id="SVGID_36_" gradientUnits="userSpaceOnUse" x1="318.209" x2="325.529" xlink:href="#lg6" y1="89.081" y2="89.081"/><linearGradient id="SVGID_37_" gradientUnits="userSpaceOnUse" x1="374.672" x2="381.992" xlink:href="#lg6" y1="89.081" y2="89.081"/><linearGradient id="lg7"><stop offset="0" stop-color="#ff7044"/><stop offset="1" stop-color="#f92814"/></linearGradient><linearGradient id="SVGID_38_" gradientUnits="userSpaceOnUse" x1="135.641" x2="135.641" xlink:href="#lg7" y1="15.501" y2="154.127"/><linearGradient id="SVGID_39_" gradientUnits="userSpaceOnUse" x1="201.152" x2="201.152" xlink:href="#lg7" y1="15.501" y2="154.127"/><linearGradient id="SVGID_40_" gradientUnits="userSpaceOnUse" x1="261.268" x2="261.268" xlink:href="#lg7" y1="15.501" y2="154.127"/><linearGradient id="SVGID_41_" gradientUnits="userSpaceOnUse" x1="322.364" x2="322.364" xlink:href="#lg7" y1="15.501" y2="154.127"/><linearGradient id="SVGID_42_" gradientUnits="userSpaceOnUse" x1="378.827" x2="378.827" xlink:href="#lg7" y1="15.501" y2="154.127"/><linearGradient id="SVGID_43_" gradientUnits="userSpaceOnUse" x1="254.999" x2="254.999" xlink:href="#lg5" y1="92.333" y2="130.515"/><linearGradient id="SVGID_44_" gradientUnits="userSpaceOnUse" x1="213.451" x2="101.656" xlink:href="#lg4" y1="207.414" y2="60.074"/><linearGradient id="SVGID_45_" gradientUnits="userSpaceOnUse" x1="274.235" x2="247.659" xlink:href="#lg4" y1="206.81" y2="68.021"/><linearGradient id="SVGID_46_" gradientUnits="userSpaceOnUse" x1="91.619" x2="-26.176" xlink:href="#lg1" y1="283.245" y2="227.945"/><linearGradient id="SVGID_47_" gradientUnits="userSpaceOnUse" x1="91.619" x2="-26.176" xlink:href="#lg1" y1="365.963" y2="310.663"/><linearGradient id="SVGID_48_" gradientUnits="userSpaceOnUse" x1="91.618" x2="-26.176" xlink:href="#lg1" y1="448.681" y2="393.38"/><linearGradient id="SVGID_49_" gradientTransform="matrix(-1 0 0 -1 4766 -1469.342)" gradientUnits="userSpaceOnUse" x1="4742.042" x2="4643.076" xlink:href="#lg3" y1="-1886.257" y2="-1932.718"/><linearGradient id="SVGID_50_" gradientTransform="matrix(-1 0 0 -1 4766 -1469.342)" gradientUnits="userSpaceOnUse" x1="4742.042" x2="4643.076" xlink:href="#lg3" y1="-1803.539" y2="-1850.001"/><linearGradient id="SVGID_51_" gradientTransform="matrix(-1 0 0 -1 4766 -1469.342)" gradientUnits="userSpaceOnUse" x1="4742.042" x2="4643.076" xlink:href="#lg3" y1="-1720.822" y2="-1767.283"/><linearGradient id="SVGID_52_" gradientUnits="userSpaceOnUse" x1="491.918" x2="374.124" xlink:href="#lg1" y1="283.245" y2="227.945"/><linearGradient id="SVGID_53_" gradientUnits="userSpaceOnUse" x1="491.918" x2="374.123" xlink:href="#lg1" y1="365.963" y2="310.663"/><linearGradient id="SVGID_54_" gradientUnits="userSpaceOnUse" x1="491.918" x2="374.124" xlink:href="#lg1" y1="448.681" y2="393.38"/><linearGradient id="SVGID_55_" gradientTransform="matrix(-1 0 0 -1 4766 -1469.342)" gradientUnits="userSpaceOnUse" x1="4341.743" x2="4242.777" xlink:href="#lg3" y1="-1886.257" y2="-1932.718"/><linearGradient id="SVGID_56_" gradientTransform="matrix(-1 0 0 -1 4766 -1469.342)" gradientUnits="userSpaceOnUse" x1="4341.743" x2="4242.776" xlink:href="#lg3" y1="-1803.539" y2="-1850.001"/><linearGradient id="SVGID_57_" gradientTransform="matrix(-1 0 0 -1 4766 -1469.342)" gradientUnits="userSpaceOnUse" x1="4341.743" x2="4242.777" xlink:href="#lg3" y1="-1720.822" y2="-1767.283"/><linearGradient id="SVGID_58_" gradientUnits="userSpaceOnUse" x1="471.453" x2="340.461" xlink:href="#lg4" y1="312.568" y2="165.684"/><path d="m127.622 505.173h-114.097c-7.47 0-13.525-6.056-13.525-13.525v-264.167c0-7.469 6.055-13.525 13.525-13.525h114.098v291.217z" fill="url(#SVGID_1_)"/><path d="m382.376 505.173h114.098c7.47 0 13.525-6.055 13.525-13.525v-264.167c0-7.469-6.055-13.525-13.525-13.525h-114.098z" fill="url(#SVGID_2_)"/><path d="m510 320.266v171.38c0 7.476-6.054 13.529-13.529 13.529h-114.097v-291.217h21.328z" fill="url(#SVGID_3_)"/><path d="m106.255 109.509h297.488v395.663h-297.488z" fill="url(#SVGID_4_)"/><path d="m377.932 505.173h-245.865c-6.969 0-12.619-5.65-12.619-12.619v-355.306c0-6.969 5.65-12.619 12.619-12.619h245.865c6.969 0 12.619 5.65 12.619 12.619v355.306c-.001 6.969-5.65 12.619-12.619 12.619z" fill="url(#SVGID_5_)"/><path d="m361.861 145.254c7.977 0 14.466 6.49 14.466 14.467v47.09c0 7.976-6.49 14.466-14.466 14.466h-47.09c-7.977 0-14.466-6.49-14.466-14.466v-47.09c0-7.977 6.49-14.467 14.466-14.467z" fill="url(#SVGID_6_)"/><path d="m361.861 227.972c7.977 0 14.466 6.49 14.466 14.466v47.091c0 7.976-6.49 14.466-14.466 14.466h-47.09c-7.977 0-14.466-6.49-14.466-14.466v-47.091c0-7.976 6.49-14.466 14.466-14.466z" fill="url(#SVGID_7_)"/><path d="m361.861 310.69c7.977 0 14.466 6.49 14.466 14.466v47.09c0 7.976-6.49 14.466-14.466 14.466h-47.09c-7.977 0-14.466-6.49-14.466-14.466v-47.09c0-7.976 6.49-14.466 14.466-14.466z" fill="url(#SVGID_8_)"/><path d="m195.227 145.254c7.977 0 14.466 6.49 14.466 14.467v47.09c0 7.976-6.49 14.466-14.466 14.466h-47.09c-7.977 0-14.466-6.49-14.466-14.466v-47.09c0-7.977 6.49-14.467 14.466-14.467z" fill="url(#SVGID_9_)"/><path d="m195.227 227.972c7.977 0 14.466 6.49 14.466 14.466v47.091c0 7.976-6.49 14.466-14.466 14.466h-47.09c-7.977 0-14.466-6.49-14.466-14.466v-47.091c0-7.976 6.49-14.466 14.466-14.466z" fill="url(#SVGID_10_)"/><path d="m195.227 310.69c7.977 0 14.466 6.49 14.466 14.466v47.09c0 7.976-6.49 14.466-14.466 14.466h-47.09c-7.977 0-14.466-6.49-14.466-14.466v-47.09c0-7.976 6.49-14.466 14.466-14.466z" fill="url(#SVGID_11_)"/><path d="m278.544 145.254c7.977 0 14.466 6.49 14.466 14.467v47.09c0 7.976-6.49 14.466-14.466 14.466h-47.09c-7.977 0-14.466-6.49-14.466-14.466v-47.09c0-7.977 6.49-14.467 14.466-14.467z" fill="url(#SVGID_12_)"/><path d="m278.544 227.972c7.977 0 14.466 6.49 14.466 14.466v47.091c0 7.976-6.49 14.466-14.466 14.466h-47.09c-7.977 0-14.466-6.49-14.466-14.466v-47.091c0-7.976 6.49-14.466 14.466-14.466z" fill="url(#SVGID_13_)"/><path d="m278.544 310.69c7.977 0 14.466 6.49 14.466 14.466v47.09c0 7.976-6.49 14.466-14.466 14.466h-47.09c-7.977 0-14.466-6.49-14.466-14.466v-47.09c0-7.976 6.49-14.466 14.466-14.466z" fill="url(#SVGID_14_)"/><path d="m403.743 109.509h-297.488v4.55l297.488 297.488z" fill="url(#SVGID_15_)"/><path d="m254.999 505.173h134.464c7.886 0 14.28-5.619 14.28-12.55v-383.114h-148.744z" fill="url(#SVGID_16_)"/><path d="m319.095 408.058c-.743-1.55-2.313-2.628-4.147-2.628h-119.897c-2.547 0-4.612 2.065-4.612 4.612v6.151c0 1.834 1.078 3.404 2.628 4.147l84.834 84.834h100.03.001 12.424c7.098 0 12.889-5.527 13.343-12.51z" fill="url(#SVGID_17_)"/><path d="m199.376 418.887h111.247v86.286h-111.247z" fill="url(#SVGID_18_)"/><path d="m277.902 505.173h32.721v-86.286h-111.247v7.76z" fill="url(#SVGID_19_)"/><path d="m305.533 505.173h-101.067v-73.949c0-3.165 2.566-5.732 5.731-5.732h89.604c3.165 0 5.731 2.566 5.731 5.732v73.949z" fill="url(#SVGID_20_)"/><path d="m254.999 418.887h55.623v86.286h-55.623z" fill="url(#SVGID_21_)"/><path d="m314.948 420.803h-119.897c-2.547 0-4.612-2.065-4.612-4.612v-6.15c0-2.547 2.065-4.612 4.612-4.612h119.897c2.547 0 4.612 2.065 4.612 4.612v6.15c-.001 2.548-2.065 4.612-4.612 4.612z" fill="url(#SVGID_22_)"/><path d="m148.137 379.393c-3.941 0-7.148-3.207-7.148-7.148v-47.09c0-3.941 3.206-7.147 7.148-7.147h47.09c3.941 0 7.148 3.206 7.148 7.147v47.09c0 3.941-3.206 7.148-7.148 7.148z" fill="url(#SVGID_23_)"/><path d="m148.137 296.675c-3.941 0-7.148-3.206-7.148-7.147v-47.091c0-3.941 3.206-7.147 7.148-7.147h47.09c3.941 0 7.148 3.206 7.148 7.147v47.091c0 3.941-3.206 7.147-7.148 7.147z" fill="url(#SVGID_24_)"/><path d="m148.137 213.957c-3.941 0-7.148-3.206-7.148-7.147v-47.09c0-3.941 3.206-7.147 7.148-7.147h47.09c3.941 0 7.148 3.206 7.148 7.147v47.09c0 3.941-3.206 7.147-7.148 7.147z" fill="url(#SVGID_25_)"/><path d="m314.771 379.393c-3.941 0-7.148-3.207-7.148-7.148v-47.09c0-3.941 3.206-7.147 7.148-7.147h47.09c3.941 0 7.148 3.206 7.148 7.147v47.09c0 3.941-3.206 7.148-7.148 7.148z" fill="url(#SVGID_26_)"/><path d="m314.771 296.675c-3.941 0-7.148-3.206-7.148-7.147v-47.091c0-3.941 3.206-7.147 7.148-7.147h47.09c3.941 0 7.148 3.206 7.148 7.147v47.091c0 3.941-3.206 7.147-7.148 7.147z" fill="url(#SVGID_27_)"/><path d="m314.771 213.957c-3.941 0-7.148-3.206-7.148-7.147v-47.09c0-3.941 3.206-7.147 7.148-7.147h47.09c3.941 0 7.148 3.206 7.148 7.147v47.09c0 3.941-3.206 7.147-7.148 7.147z" fill="url(#SVGID_28_)"/><path d="m231.454 379.393c-3.941 0-7.148-3.207-7.148-7.148v-47.09c0-3.941 3.206-7.147 7.148-7.147h47.09c3.941 0 7.148 3.206 7.148 7.147v47.09c0 3.941-3.206 7.148-7.148 7.148z" fill="url(#SVGID_29_)"/><path d="m231.454 296.675c-3.941 0-7.148-3.206-7.148-7.147v-47.091c0-3.941 3.206-7.147 7.148-7.147h47.09c3.941 0 7.148 3.206 7.148 7.147v47.091c0 3.941-3.206 7.147-7.148 7.147z" fill="url(#SVGID_30_)"/><path d="m231.454 213.957c-3.941 0-7.148-3.206-7.148-7.147v-47.09c0-3.941 3.206-7.147 7.148-7.147h47.09c3.941 0 7.148 3.206 7.148 7.147v47.09c0 3.941-3.206 7.147-7.148 7.147z" fill="url(#SVGID_31_)"/><path d="m112.508 78.236h7.986v21.692h-7.986z" fill="url(#SVGID_32_)"/><path d="m150.626 78.236h7.986v21.692h-7.986z" fill="url(#SVGID_33_)"/><path d="m197.159 78.236h7.986v21.692h-7.986z" fill="url(#SVGID_34_)"/><path d="m257.275 78.236h7.986v21.692h-7.986z" fill="url(#SVGID_35_)"/><path d="m318.371 78.236h7.986v21.692h-7.986z" fill="url(#SVGID_36_)"/><path d="m374.834 78.236h7.986v21.692h-7.986z" fill="url(#SVGID_37_)"/><path d="m107.791 79.274v-69.327c0-1.671.835-2.943 2.507-3.815 1.671-.872 3.669-1.308 5.995-1.308 2.325 0 4.323.436 5.995 1.308 1.671.872 2.507 2.144 2.507 3.815v26.706h21.692v-26.706c0-1.671.835-2.943 2.507-3.815 1.671-.872 3.669-1.308 5.995-1.308 2.325 0 4.323.436 5.995 1.308 1.671.872 2.507 2.144 2.507 3.815v69.327c0 1.673-.836 2.962-2.507 3.87-1.673.909-3.671 1.363-5.995 1.363-2.326 0-4.324-.453-5.995-1.363-1.673-.907-2.507-2.197-2.507-3.87v-29.54h-21.692v29.54c0 1.673-.836 2.962-2.507 3.87-1.673.909-3.67 1.363-5.995 1.363-2.327 0-4.325-.453-5.995-1.363-1.673-.908-2.507-2.197-2.507-3.87z" fill="url(#SVGID_38_)"/><path d="m174.391 59.435v-28.886c0-8.865 2.434-15.37 7.303-19.512 4.868-4.142 11.337-6.213 19.403-6.213 8.138 0 14.642 2.071 19.512 6.213 4.868 4.142 7.303 10.646 7.303 19.512v28.886c0 8.867-2.436 15.37-7.303 19.512-4.869 4.142-11.374 6.213-19.512 6.213-8.066 0-14.535-2.071-19.403-6.213-4.869-4.142-7.303-10.645-7.303-19.512zm17.005 0c0 7.268 3.233 10.901 9.701 10.901 6.54 0 9.81-3.633 9.81-10.901v-28.886c0-7.266-3.27-10.901-9.81-10.901-6.469 0-9.701 3.635-9.701 10.901z" fill="url(#SVGID_39_)"/><path d="m232.6 12.131c0-1.976.436-3.688 1.308-5.136s2.143-2.171 3.815-2.171h47.09c1.671 0 2.943.723 3.815 2.171s1.308 3.16 1.308 5.136c0 2.118-.455 3.9-1.362 5.348-.909 1.447-2.163 2.169-3.761 2.169h-15.043v59.59c0 1.683-.836 2.982-2.507 3.897-1.673.915-3.67 1.371-5.995 1.371-2.327 0-4.325-.456-5.995-1.371-1.673-.915-2.507-2.214-2.507-3.897v-59.59h-15.043c-1.599 0-2.853-.722-3.761-2.169-.909-1.448-1.362-3.229-1.362-5.348z" fill="url(#SVGID_40_)"/><path d="m296.693 79.274v-69.218c0-1.671.726-2.96 2.18-3.869 1.453-.908 3.197-1.363 5.232-1.363h38.806c1.671 0 2.943.727 3.815 2.18.872 1.455 1.308 3.161 1.308 5.123 0 2.109-.455 3.888-1.363 5.341-.909 1.455-2.163 2.18-3.76 2.18h-29.213v18.422h16.35c1.598 0 2.851.654 3.761 1.962.908 1.308 1.363 2.872 1.363 4.687 0 1.673-.436 3.161-1.308 4.469s-2.144 1.962-3.815 1.962h-16.35v18.531h29.213c1.597 0 2.851.727 3.76 2.18.908 1.454 1.363 3.234 1.363 5.341 0 1.962-.436 3.67-1.308 5.123-.872 1.455-2.144 2.18-3.815 2.18h-38.806c-2.035 0-3.78-.453-5.232-1.363-1.455-.906-2.181-2.195-2.181-3.868z" fill="url(#SVGID_41_)"/><path d="m355.445 79.274v-69.327c0-1.671.835-2.943 2.507-3.815 1.671-.872 3.669-1.308 5.995-1.308 2.325 0 4.323.436 5.995 1.308 1.671.872 2.507 2.144 2.507 3.815v59.735h24.853c1.526 0 2.725.727 3.597 2.18.872 1.454 1.308 3.198 1.308 5.232 0 2.036-.436 3.78-1.308 5.233-.872 1.455-2.071 2.18-3.597 2.18h-34.445c-2.035 0-3.78-.453-5.232-1.363-1.454-.908-2.18-2.197-2.18-3.87z" fill="url(#SVGID_42_)"/><path d="m409.021 114.059h-308.043c-2.742 0-4.965-2.223-4.965-4.965v-13.31c0-2.742 2.223-4.965 4.965-4.965h308.043c2.742 0 4.965 2.223 4.965 4.965v13.31c-.001 2.742-2.223 4.965-4.965 4.965z" fill="url(#SVGID_43_)"/><path d="m195.227 152.572h-47.09c-.992 0-1.938.204-2.798.571l56.464 56.464c.367-.86.572-1.805.572-2.798v-47.09c0-3.941-3.207-7.147-7.148-7.147z" fill="url(#SVGID_44_)"/><path d="m278.544 152.572h-23.545v61.384h23.545c3.941 0 7.148-3.206 7.148-7.147v-47.09c0-3.941-3.207-7.147-7.148-7.147z" fill="url(#SVGID_45_)"/><path d="m78.395 227.972c7.977 0 14.466 6.49 14.466 14.467v47.09c0 7.976-6.49 14.466-14.466 14.466h-47.09c-7.977 0-14.466-6.49-14.466-14.466v-47.09c0-7.977 6.49-14.467 14.466-14.467z" fill="url(#SVGID_46_)"/><path d="m78.395 310.69c7.977 0 14.466 6.49 14.466 14.466v47.091c0 7.976-6.49 14.466-14.466 14.466h-47.09c-7.977 0-14.466-6.49-14.466-14.466v-47.091c0-7.976 6.49-14.466 14.466-14.466z" fill="url(#SVGID_47_)"/><path d="m78.395 393.408c7.977 0 14.466 6.49 14.466 14.466v47.09c0 7.976-6.49 14.466-14.466 14.466h-47.09c-7.977 0-14.466-6.49-14.466-14.466v-47.09c0-7.976 6.49-14.466 14.466-14.466z" fill="url(#SVGID_48_)"/><path d="m31.305 462.111c-3.941 0-7.148-3.207-7.148-7.148v-47.09c0-3.941 3.206-7.147 7.148-7.147h47.09c3.941 0 7.148 3.206 7.148 7.147v47.09c0 3.941-3.206 7.148-7.148 7.148z" fill="url(#SVGID_49_)"/><path d="m31.305 379.393c-3.941 0-7.148-3.206-7.148-7.147v-47.091c0-3.941 3.206-7.147 7.148-7.147h47.09c3.941 0 7.148 3.206 7.148 7.147v47.091c0 3.941-3.206 7.147-7.148 7.147z" fill="url(#SVGID_50_)"/><path d="m31.305 296.675c-3.941 0-7.148-3.206-7.148-7.147v-47.09c0-3.941 3.206-7.147 7.148-7.147h47.09c3.941 0 7.148 3.206 7.148 7.147v47.09c0 3.941-3.206 7.147-7.148 7.147z" fill="url(#SVGID_51_)"/><path d="m478.694 227.972c7.977 0 14.466 6.49 14.466 14.467v47.09c0 7.976-6.49 14.466-14.466 14.466h-47.09c-7.977 0-14.466-6.49-14.466-14.466v-47.09c0-7.977 6.49-14.467 14.466-14.467z" fill="url(#SVGID_52_)"/><path d="m478.694 310.69c7.977 0 14.466 6.49 14.466 14.466v47.091c0 7.976-6.49 14.466-14.466 14.466h-47.09c-7.977 0-14.466-6.49-14.466-14.466v-47.091c0-7.976 6.49-14.466 14.466-14.466z" fill="url(#SVGID_53_)"/><path d="m478.694 393.408c7.977 0 14.466 6.49 14.466 14.466v47.09c0 7.976-6.49 14.466-14.466 14.466h-47.09c-7.977 0-14.466-6.49-14.466-14.466v-47.09c0-7.976 6.49-14.466 14.466-14.466z" fill="url(#SVGID_54_)"/><path d="m431.604 462.111c-3.941 0-7.148-3.207-7.148-7.148v-47.09c0-3.941 3.206-7.147 7.148-7.147h47.09c3.941 0 7.148 3.206 7.148 7.147v47.09c0 3.941-3.206 7.148-7.148 7.148z" fill="url(#SVGID_55_)"/><path d="m431.604 379.393c-3.941 0-7.148-3.206-7.148-7.147v-47.091c0-3.941 3.206-7.147 7.148-7.147h47.09c3.941 0 7.148 3.206 7.148 7.147v47.091c0 3.941-3.206 7.147-7.148 7.147z" fill="url(#SVGID_56_)"/><path d="m431.604 296.675c-3.941 0-7.148-3.206-7.148-7.147v-47.09c0-3.941 3.206-7.147 7.148-7.147h47.09c3.941 0 7.148 3.206 7.148 7.147v47.09c0 3.941-3.206 7.147-7.148 7.147z" fill="url(#SVGID_57_)"/><path d="m426.854 237.112c-1.467 1.31-2.398 3.209-2.398 5.326v47.09c0 3.941 3.206 7.147 7.148 7.147h47.09c2.115 0 4.013-.929 5.323-2.394z" fill="url(#SVGID_58_)"/></svg>