<?xml version="1.0" encoding="UTF-8"?>
<svg xmlns="http://www.w3.org/2000/svg" viewBox="0 0 64 64" width="512" height="512"><g id="Layer_32" data-name="Layer 32"><path d="M2,63H12a1,1,0,0,0,1-1V58a1,1,0,0,0-1-1H10V19H41a1,1,0,0,0,1-1V4a1,1,0,0,0-1-1H10V2A1,1,0,0,0,9,1H5A1,1,0,0,0,4,2V57H2a1,1,0,0,0-1,1v4A1,1,0,0,0,2,63ZM40,5V17H10V5ZM6,3H8V57H6ZM3,59h8v2H3Z"/><path d="M14,15V12h1.14A2.348,2.348,0,0,1,16,13.8V15h2V13.8a4.353,4.353,0,0,0-.783-2.5A2.494,2.494,0,0,0,15.5,7H13a1,1,0,0,0-1,1v7Zm0-6h1.5a.5.5,0,0,1,0,1H14Z"/><path d="M20,15h4V13H21V12h3V10H21V9h3V7H20a1,1,0,0,0-1,1v6A1,1,0,0,0,20,15Z"/><path d="M27,11.3l2.168,3.252A1,1,0,0,0,31,14V7H29v3.7L26.832,7.445A1,1,0,0,0,25,8v7h2Z"/><polygon points="34 15 36 15 36 9 38 9 38 7 32 7 32 9 34 9 34 15"/><path d="M60.909,44.37l-.187-1.123A9.791,9.791,0,0,0,58.026,38H59a3,3,0,0,0,0-6H57a2.982,2.982,0,0,0-2.262,1.051L53.6,29.64a4.3,4.3,0,0,0-3.523-2.888,97.369,97.369,0,0,0-24.156,0A4.3,4.3,0,0,0,22.4,29.64l-1.137,3.411A2.982,2.982,0,0,0,19,32H17a3,3,0,0,0,0,6h.974a9.791,9.791,0,0,0-2.7,5.247l-.187,1.123A4.591,4.591,0,0,0,13,48.236V54a3.987,3.987,0,0,0,2,3.444V60a3,3,0,0,0,3,3h4a3,3,0,0,0,3-3V58H51v2a3,3,0,0,0,3,3h4a3,3,0,0,0,3-3V57.444A3.987,3.987,0,0,0,63,54V48.236A4.589,4.589,0,0,0,60.909,44.37Zm-2.16-.795.143.861-2.244,1.122a4.186,4.186,0,0,1-5.062-1.033l6.807-2.269A7.778,7.778,0,0,1,58.749,43.575ZM56,35a1,1,0,0,1,1-1h2a1,1,0,0,1,0,2H56ZM24.3,30.273a2.285,2.285,0,0,1,1.874-1.537,95.442,95.442,0,0,1,23.66,0A2.285,2.285,0,0,1,51.7,30.273l1.989,5.969-2.027.405a70.032,70.032,0,0,1-27.335,0l-2.024-.4ZM16,35a1,1,0,0,1,1-1h2a1,1,0,0,1,1,1v1H17A1,1,0,0,1,16,35Zm1.607,7.256,6.807,2.269a4.186,4.186,0,0,1-5.062,1.033l-2.244-1.122.143-.861A7.778,7.778,0,0,1,17.607,42.256ZM23,56H17a2,2,0,0,1-2-2V52.22l6.843,1.368A1.445,1.445,0,0,1,23,55Zm0,4a1,1,0,0,1-1,1H18a1,1,0,0,1-1-1V58h6Zm9-4a2.032,2.032,0,0,1-1.869-1.231L28.12,50.075A1.489,1.489,0,0,1,29.489,48H46.511a1.49,1.49,0,0,1,1.369,2.076l-2.012,4.693A2.029,2.029,0,0,1,44,56Zm15.476,0a4.053,4.053,0,0,0,.231-.444l2.011-4.692A3.49,3.49,0,0,0,46.511,46H29.489a3.489,3.489,0,0,0-3.207,4.863l2.011,4.693a4.047,4.047,0,0,0,.23.444H25V55a3.45,3.45,0,0,0-2.765-3.373L15,50.18V48.236a2.586,2.586,0,0,1,1.07-2.083l2.388,1.194a6.186,6.186,0,0,0,7.914-2.1l.46-.69a1,1,0,0,0-.516-1.5l-7.791-2.6a7.776,7.776,0,0,1,2.646-2.4l2.767.553A71.88,71.88,0,0,0,38,40a71.833,71.833,0,0,0,14.057-1.392l2.771-.554a7.776,7.776,0,0,1,2.646,2.4l-7.791,2.6a1,1,0,0,0-.516,1.5l.46.69a6.186,6.186,0,0,0,7.914,2.1l2.388-1.194A2.586,2.586,0,0,1,61,48.236V50.18l-7.235,1.447A3.45,3.45,0,0,0,51,55v1ZM59,60a1,1,0,0,1-1,1H54a1,1,0,0,1-1-1V58h6Zm0-4H53V55a1.445,1.445,0,0,1,1.157-1.412L61,52.22V54A2,2,0,0,1,59,56Z"/></g></svg>
