<svg id="Layer_1" enable-background="new 0 0 512 512" viewBox="0 0 512 512" xmlns="http://www.w3.org/2000/svg"><g><g><path d="m50.72 117.77h16.94v189.17h-16.94z" fill="#616484"/><path d="m444.34 117.77h16.94v189.17h-16.94z" fill="#424566"/><g><path d="m471.42 117.77h-430.84c-8.49 0-15.38-6.88-15.38-15.38v-86.92c0-8.49 6.88-15.38 15.38-15.38h430.84c8.49 0 15.38 6.88 15.38 15.38v86.92c0 8.5-6.89 15.38-15.38 15.38z" fill="#e6eaff"/><path d="m471.42.1h-215.42v117.67h215.42c8.49 0 15.37-6.88 15.37-15.37v-86.92c0-8.5-6.88-15.38-15.37-15.38z" fill="#cad4ff"/></g><g><path d="m211 35.48v18.46h16.27c3.59 0 6.5 2.91 6.5 6.5s-2.91 6.5-6.5 6.5h-16.27v18.46h29.51c3.59 0 6.5 2.91 6.5 6.5s-2.91 6.5-6.5 6.5h-36.01c-3.59 0-6.5-2.91-6.5-6.5v-62.92c0-3.59 2.91-6.5 6.5-6.5h36.01c3.59 0 6.5 2.91 6.5 6.5s-2.91 6.5-6.5 6.5z" fill="#616484"/><path d="m313.37 22.48c-3.59 0-6.5 2.91-6.5 6.5v38.84l-23.12-39.72c-1.48-2.54-4.48-3.77-7.31-3s-4.81 3.34-4.81 6.28v60.52c0 3.59 2.91 6.5 6.5 6.5s6.5-2.91 6.5-6.5v-36.45l23.13 39.72c1.19 2.04 3.35 3.23 5.62 3.23.56 0 1.13-.07 1.69-.23 2.84-.77 4.81-3.34 4.81-6.28v-62.91c-.01-3.59-2.92-6.5-6.51-6.5z" fill="#424566"/><g><path d="m149.15 66.95h2c12.25 0 22.22-9.98 22.22-22.23 0-12.26-9.97-22.23-22.22-22.23h-27.74c-3.59 0-6.5 2.91-6.5 6.5v62.92c0 3.59 2.91 6.5 6.5 6.5s6.5-2.91 6.5-6.5v-24.96h1.42l27.26 29.08c1.27 1.37 3.01 2.06 4.74 2.06 1.59 0 3.19-.58 4.44-1.76 2.62-2.45 2.76-6.57.3-9.19zm-19.24-13v-18.46h21.24c5.08 0 9.22 4.14 9.22 9.23s-4.14 9.23-9.22 9.23z" fill="#616484"/></g><path d="m388.58 22.48h-37.59c-3.59 0-6.5 2.91-6.5 6.5s2.91 6.5 6.5 6.5h12.3v56.42c0 3.59 2.91 6.5 6.5 6.5s6.5-2.91 6.5-6.5v-56.42h12.3c3.59 0 6.5-2.91 6.5-6.5s-2.92-6.5-6.51-6.5z" fill="#424566"/></g></g><g><path d="m484.42 511.9h-31.17c-7.59 0-13.74-6.15-13.74-13.74v-96.47c0-7.59 6.15-13.74 13.74-13.74h31.17c7.59 0 13.74 6.15 13.74 13.74v96.47c0 7.59-6.15 13.74-13.74 13.74z" fill="#333756"/><path d="m58.75 511.9h-31.16c-7.59 0-13.74-6.15-13.74-13.74v-96.47c0-7.59 6.15-13.74 13.74-13.74h31.17c7.59 0 13.74 6.15 13.74 13.74v96.47c0 7.59-6.16 13.74-13.75 13.74z" fill="#424566"/><g><path d="m15.57 404.58c.86 3.73 4.4 34.53 6.88 53.15.96 7.18 7.08 12.54 14.33 12.54h438.44c7.25 0 13.37-5.36 14.33-12.54 2.48-18.62 6.02-49.41 6.88-53.15 2.7-11.78 7.03-23.19 8.41-35.25 1.74-15.28-.17-30.8-5.98-45.06-9.56-23.46-26.21-43.26-35.67-66.78-9.88-24.58-21.28-48.51-31.99-72.73-15-33.92-48.57-55.81-85.66-55.81h-179.08c-37.09 0-70.65 21.9-85.66 55.81-10.71 24.22-22.11 48.14-31.99 72.73-9.45 23.53-26.1 43.32-35.67 66.78-5.81 14.26-7.72 29.79-5.98 45.06 1.38 12.07 5.71 23.47 8.41 35.25z" fill="#47b5ff"/><path d="m498.87 324.27c-9.57-23.46-26.22-43.25-35.67-66.78-9.88-24.58-21.28-48.51-31.99-72.73-15.01-33.91-48.57-55.81-85.66-55.81h-89.55v341.32h219.23c7.25 0 13.37-5.35 14.33-12.54 2.48-18.62 6.02-49.41 6.88-53.14 2.7-11.78 7.03-23.19 8.41-35.25 1.74-15.28-.17-30.81-5.98-45.07z" fill="#2192ff"/></g><g><path d="m428.23 213.17c-3.35-7.39-6.82-15.02-10.17-22.6-12.71-28.7-41.16-47.26-72.51-47.26h-179.09c-31.36 0-59.82 18.55-72.53 47.26-3.35 7.57-6.8 15.21-10.15 22.59-6.35 14.03-12.88 28.46-18.87 42.89 60.57 5.22 124.71 8.01 191.09 8.01s130.52-2.79 191.08-8.01c-5.97-14.42-12.49-28.85-18.85-42.88z" fill="#616484"/><path d="m428.24 213.18c-3.36-7.39-6.82-15.02-10.17-22.61-12.71-28.69-41.17-47.26-72.51-47.26h-89.56v120.75h.01c66.39 0 130.52-2.79 191.08-8.01-5.97-14.41-12.5-28.84-18.85-42.87z" fill="#424566"/></g><g><path d="m403.09 397.66 13.11-25.96c4.47-8.86 11.07-16.53 19.37-21.96 9.36-6.12 23.08-12.42 40.51-13.16 0 0 9.27.74 9.27 16.32v17.1c0 5.47-3.1 10.47-8.02 12.87-10.52 5.13-32.62 12.99-73.26 16.22-.77.07-1.33-.74-.98-1.43z" fill="#cad4ff"/><g fill="#e6eaff"><path d="m461.9 349.05c-8.76 0-15.88 7.1-15.88 15.88s7.12 15.88 15.88 15.88c8.78 0 15.88-7.1 15.88-15.88s-7.1-15.88-15.88-15.88zm0 27.1c-6.19 0-11.22-5.03-11.22-11.22s5.03-11.22 11.22-11.22 11.22 5.03 11.22 11.22-5.03 11.22-11.22 11.22z"/><path d="m461.9 356.94c-4.41 0-7.99 3.58-7.99 7.99s3.58 7.99 7.99 7.99 7.99-3.58 7.99-7.99-3.58-7.99-7.99-7.99zm0 10.89c-1.6 0-2.89-1.3-2.89-2.9s1.29-2.89 2.89-2.89 2.89 1.29 2.89 2.89-1.29 2.9-2.89 2.9z"/><path d="m431 372.38c-5 0-9.06 4.05-9.06 9.06s4.06 9.06 9.06 9.06c5.01 0 9.06-4.05 9.06-9.06s-4.05-9.06-9.06-9.06zm0 15.46c-3.53 0-6.4-2.87-6.4-6.4s2.87-6.4 6.4-6.4 6.4 2.87 6.4 6.4-2.87 6.4-6.4 6.4z"/><path d="m431.01 378c-1.9 0-3.45 1.54-3.45 3.44s1.55 3.44 3.45 3.44 3.44-1.54 3.44-3.44-1.54-3.44-3.44-3.44zm0 4.69c-.69 0-1.25-.56-1.25-1.25s.56-1.25 1.25-1.25c.68 0 1.24.56 1.24 1.25s-.56 1.25-1.24 1.25z"/></g><path d="m476.09 336.57c-17.43.73-31.16 7.04-40.51 13.17-8.32 5.43-14.91 13.1-19.38 21.95l-13.1 25.97c-.35.69.21 1.5.97 1.44.48-.03.96-.08 1.44-.13l12.74-25.22c4.47-8.86 11.06-16.54 19.38-21.96 9.04-5.93 22.18-12.02 38.8-13.08 1.96-.13 3.95.39 5.53 1.56.02.02.04.03.06.05-2.66-3.49-5.93-3.75-5.93-3.75z" fill="#ffc738"/></g><g><path d="m108.91 397.66-13.11-25.96c-4.47-8.86-11.07-16.53-19.37-21.96-9.36-6.12-23.08-12.42-40.51-13.16 0 0-9.27.74-9.27 16.32v17.1c0 5.47 3.1 10.47 8.02 12.87 10.52 5.13 32.62 12.99 73.26 16.22.78.07 1.33-.74.98-1.43z" fill="#e6eaff"/><g fill="#fff"><path d="m34.23 364.93c0 8.78 7.1 15.88 15.88 15.88 8.76 0 15.88-7.1 15.88-15.88s-7.12-15.88-15.88-15.88c-8.78 0-15.88 7.1-15.88 15.88zm4.66 0c0-6.19 5.03-11.22 11.22-11.22s11.22 5.03 11.22 11.22-5.03 11.22-11.22 11.22-11.22-5.03-11.22-11.22z"/><path d="m50.11 356.94c-4.41 0-7.99 3.58-7.99 7.99s3.58 7.99 7.99 7.99 7.99-3.58 7.99-7.99-3.58-7.99-7.99-7.99zm0 10.89c-1.6 0-2.89-1.3-2.89-2.9s1.29-2.89 2.89-2.89 2.89 1.29 2.89 2.89-1.29 2.9-2.89 2.9z"/><path d="m71.94 381.44c0 5.01 4.05 9.06 9.06 9.06 5 0 9.06-4.05 9.06-9.06s-4.06-9.06-9.06-9.06c-5.01 0-9.06 4.05-9.06 9.06zm2.66 0c0-3.53 2.87-6.4 6.4-6.4s6.4 2.87 6.4 6.4-2.87 6.4-6.4 6.4-6.4-2.87-6.4-6.4z"/><path d="m81 378c-1.89 0-3.44 1.54-3.44 3.44s1.55 3.44 3.44 3.44c1.9 0 3.45-1.54 3.45-3.44s-1.55-3.44-3.45-3.44zm0 4.69c-.68 0-1.24-.56-1.24-1.25s.56-1.25 1.24-1.25c.69 0 1.25.56 1.25 1.25s-.56 1.25-1.25 1.25z"/></g><path d="m35.92 336.57c17.43.73 31.16 7.04 40.51 13.17 8.32 5.43 14.91 13.1 19.38 21.95l13.1 25.97c.35.69-.21 1.5-.97 1.44-.48-.03-.96-.08-1.44-.13l-12.74-25.22c-4.47-8.86-11.06-16.54-19.38-21.96-9.04-5.93-22.18-12.02-38.8-13.08-1.96-.13-3.95.39-5.53 1.56-.02.02-.04.03-.06.05 2.66-3.49 5.93-3.75 5.93-3.75z" fill="#fff259"/></g><g><path d="m385.7 426.3c-.97.14-1.56 1.18-1.16 2.07 5.39 12.04 15.54 25.76 29.84 25.76 7.78 0 32.28-2.31 40.03-3.12 6.16-.64 15.08-1.06 20.2-5 2.74-2.11 3.09-5.97 3.16-9.16.14-6.54.8-16.28-5.33-20.7-3.26-2.35-6.69-1.21-10.33-.68-19.91 2.9-56.52 7.9-76.41 10.83z" fill="#0085f2"/><path d="m408.91 425.85c-.84.12-1.35 1.02-1 1.79 4.66 10.42 13.45 22.29 25.82 22.29 6.74 0 13.49-.08 20.19-.79 5.33-.56 13.05-.92 17.48-4.33 2.37-1.82 2.67-5.16 2.73-7.93.12-5.66.69-14.09-4.61-17.91-2.82-2.03-5.79-1.05-8.94-.59-17.22 2.51-34.45 4.92-51.67 7.47z" fill="#424566"/></g><g><path d="m126.31 426.3c.97.14 1.56 1.18 1.16 2.07-5.39 12.04-15.54 25.76-29.84 25.76-7.78 0-32.28-2.31-40.03-3.12-6.16-.64-15.08-1.06-20.2-5-2.74-2.11-3.09-5.97-3.16-9.16-.14-6.54-.8-16.28 5.33-20.7 3.26-2.35 6.69-1.21 10.33-.68 19.9 2.9 56.51 7.9 76.41 10.83z" fill="#2192ff"/><path d="m103.09 425.85c.84.12 1.35 1.02 1 1.79-4.66 10.42-13.45 22.29-25.82 22.29-6.74 0-13.49-.08-20.19-.79-5.33-.56-13.05-.92-17.48-4.33-2.37-1.82-2.67-5.16-2.73-7.93-.12-5.66-.69-14.09 4.61-17.91 2.82-2.03 5.79-1.05 8.94-.59 17.22 2.51 34.46 4.92 51.67 7.47z" fill="#616484"/></g><path d="m506.03 225.16c-3.27-2.36-7.28-3.48-11.32-3.48h-11.92c-3.94 0-6.91 1.23-9.15 2.89-3.8 2.83-5.86 7.44-5.86 12.18v9.86h40.86c3.16-4.87 3.35-10.26 3.35-10.26.01-5.41-2.86-8.96-5.96-11.19z" fill="#2192ff"/><path d="m458.7 246.63c1.09 2.54 2.14 5.09 3.19 7.65h31.35c8.19 0 12.8-3.65 15.4-7.66h-48.44z" fill="#424566"/><path d="m44.23 236.75c0-4.74-2.06-9.35-5.87-12.18-2.22-1.66-5.2-2.89-9.15-2.89h-11.91c-4.04 0-8.04 1.12-11.32 3.48-3.11 2.23-5.98 5.78-5.98 11.19 0 0 .19 5.35 3.32 10.2h40.91z" fill="#47b5ff"/><path d="m44.23 246.55h-40.91c2.59 4.03 7.21 7.73 15.44 7.73h31.34c1.04-2.55 2.11-5.11 3.18-7.65z" fill="#616484"/><g><path d="m488.47 461.63c-2.27 5.14-7.39 8.64-13.25 8.64h-438.44c-5.86 0-10.98-3.5-13.23-8.64h103.22c9.88 0 18.98-5.39 23.7-14.08l4.31-7.89c5.75-10.57 16.82-17.14 28.86-17.14h145c12.04 0 23.11 6.58 28.86 17.14l4.31 7.89c4.72 8.68 13.82 14.08 23.7 14.08z" fill="#616484"/><path d="m385.51 461.63c-9.88 0-18.98-5.39-23.71-14.07l-4.3-7.89c-5.75-10.57-16.83-17.14-28.86-17.14h-72.64v47.74h219.23c5.86 0 10.98-3.5 13.25-8.64z" fill="#424566"/></g><g><path d="m447.02 255.87-6.96.75-.69.08h-.21c-58.23 4.8-119.66 7.36-183.16 7.36s-124.95-2.55-183.18-7.36h-.21l-.69-.08-6.96-.75-14.88-1.6s28.3 93.58 82.38 93.58h247.05c54.08 0 82.36-93.58 82.36-93.58z" fill="#5cc5ff"/><path d="m447.02 255.87-6.96.75-.68.08h-.21c-58.23 4.81-119.66 7.36-183.16 7.36h-.01v83.8h123.54c53.73 0 81.99-92.36 82.36-93.57 0-.01 0-.01 0-.01z" fill="#47b5ff"/></g><g><g><g><path d="m394.52 345.38c-4.76 1.6-9.75 2.47-14.99 2.47h-247.05c-5.25 0-10.25-.88-15-2.47-1.1 5.94 1.34 12.24 3.59 17.78 3.94 9.78 10.34 18.61 17.33 26.5 3.58 4.05 9.07 6.86 13.22 7.01 34.83 1.21 69.59 1.82 104.39 1.82s69.56-.61 104.37-1.82c4.17-.14 9.64-2.95 13.23-7.01 6.98-7.89 13.39-16.71 17.33-26.5 2.26-5.53 4.67-11.82 3.58-17.78z" fill="#616484"/><path d="m394.53 345.39c-4.76 1.59-9.76 2.47-14.99 2.47h-123.54v50.63h.01c34.8 0 69.56-.61 104.37-1.82 4.17-.14 9.64-2.95 13.24-7.01 6.97-7.88 13.39-16.71 17.33-26.49 2.25-5.54 4.66-11.83 3.58-17.78z" fill="#424566"/></g></g><g><g fill="#72769c"><path d="m147.14 347.86v47.82c-1.8-.67-3.63-1.67-5.32-2.91v-44.91z"/><path d="m167.42 347.86v49.32c-1.77-.05-3.55-.11-5.32-.16v-49.16z"/><path d="m187.69 347.86v49.84c-1.77-.03-3.55-.07-5.32-.13v-49.71z"/><path d="m207.97 347.86v50.23c-1.78-.02-3.55-.05-5.32-.08v-50.15z"/><path d="m228.24 347.86v50.5c-1.77-.02-3.54-.03-5.31-.06v-50.44z"/><path d="m248.52 347.86v50.61c-1.77.01-3.55 0-5.32-.01v-50.6z"/></g><path d="m268.8 347.86v50.6c-1.77.01-3.55.02-5.32.01v-50.61z" fill="#616484"/><path d="m289.07 347.86v50.44c-1.77.03-3.54.04-5.32.06v-50.5z" fill="#616484"/><path d="m309.35 347.86v50.15c-1.77.03-3.55.07-5.32.08v-50.23z" fill="#616484"/><path d="m329.62 347.86v49.71c-1.78.06-3.55.1-5.32.13v-49.84z" fill="#616484"/><path d="m349.9 347.86v49.16c-1.77.05-3.55.11-5.32.16v-49.32z" fill="#616484"/><path d="m370.18 347.86v44.91c-1.69 1.25-3.52 2.25-5.32 2.92v-47.83z" fill="#616484"/></g><g><g><g><circle cx="256" cy="372.83" fill="#e6eaff" r="21.38"/><path d="m256 351.44v42.77c11.81 0 21.39-9.57 21.39-21.38s-9.58-21.39-21.39-21.39z" fill="#cad4ff"/></g><g><circle cx="256" cy="372.83" fill="#616484" r="16.56"/><path d="m256 356.27v33.12c9.15 0 16.56-7.42 16.56-16.56 0-9.15-7.41-16.56-16.56-16.56z" fill="#424566"/></g></g><g><g><path d="m256 354.94-15.08 26.85h30.15z" fill="#e6eaff"/><path d="m256 354.93v26.86h15.08z" fill="#cad4ff"/></g><g><path d="m249.46 376.79 6.54-11.64 6.53 11.64z" fill="#616484"/><path d="m256 365.15v11.64h6.54z" fill="#424566"/></g></g></g></g></g></g></svg>