<?xml version="1.0" encoding="iso-8859-1"?>
<!-- Generator: Adobe Illustrator 19.0.0, SVG Export Plug-In . SVG Version: 6.00 Build 0)  -->
<svg version="1.1" id="Capa_1" xmlns="http://www.w3.org/2000/svg" xmlns:xlink="http://www.w3.org/1999/xlink" x="0px" y="0px"
	 viewBox="0 0 512.003 512.003" style="enable-background:new 0 0 512.003 512.003;" xml:space="preserve">
<g>
	<g transform="translate(1 1)">
		<path style="fill:#FFFFFF;" d="M212.337,109.935h-5.865c8.572-20.536,4.034-44.208-11.524-60.119s-39.122-20.978-59.845-12.869
			s-34.591,27.822-35.219,50.067C96.237,73.311,85.316,62.746,71.5,59.556c-13.816-3.19-28.264,1.518-37.549,12.235
			s-11.885,25.688-6.759,38.909c-12.624,2.999-20.999,14.979-19.48,27.864s12.45,22.59,25.425,22.572h179.2
			c14.138,0,25.6-11.462,25.6-25.6S226.475,109.935,212.337,109.935z"/>
		<path style="fill:#CFD8DC;" d="M237.937,135.535c0.009,6.792-2.685,13.309-7.488,18.112s-11.32,7.497-18.112,7.488h-25.6
			c14.139,0,25.6-11.462,25.6-25.6s-11.462-25.6-25.6-25.6h-5.888c6.253-15.005,5.607-31.998-1.768-46.485
			s-20.735-25.007-36.547-28.779c4.159-1.03,8.43-1.546,12.715-1.536c18.545,0,35.864,9.269,46.151,24.699
			c10.287,15.431,12.182,34.982,5.049,52.101h5.888c6.792-0.009,13.309,2.685,18.112,7.488
			C235.252,122.226,237.946,128.743,237.937,135.535z"/>
		<path style="fill:#0377BC;" d="M451.526,306.031l-0.256,0.171v51.2c-0.028,9.414-7.652,17.039-17.067,17.067h-358.4
			c-9.414-0.028-17.039-7.653-17.067-17.067v-51.2l-0.256-0.171L242.374,58.735l12.629-17.067L451.526,306.031z"/>
		<path style="fill:#02A9F4;" d="M426.182,306.031l-0.256,0.171v51.2c-0.028,9.414-7.653,17.039-17.067,17.067H75.803
			c-9.414-0.028-17.039-7.653-17.067-17.067v-51.2l-0.256-0.171L242.374,58.735L426.182,306.031z"/>
		<path style="fill:#FFEB3A;" d="M489.67,84.335c-0.004,42.414-34.386,76.796-76.8,76.8c-10.263,0.02-20.423-2.041-29.867-6.059
			c28.443-12.001,46.933-39.87,46.933-70.741s-18.49-58.741-46.933-70.741c9.444-4.017,19.604-6.078,29.867-6.059
			C455.284,7.538,489.667,41.921,489.67,84.335z"/>
		<polygon style="fill:#283593;" points="400.07,374.468 109.937,374.468 186.31,239.727 210.374,197.231 242.203,141.082 
			255.003,118.468 299.633,197.231 323.697,239.727 		"/>
		<polygon style="fill:#3F51B5;" points="374.47,374.468 109.937,374.468 186.31,239.727 210.374,197.231 242.203,141.082 
			274.033,197.231 298.097,239.727 		"/>
		<g>
			<path style="fill:#2296F3;" d="M210.374,197.231l-24.064,42.496l-76.373,134.741v-59.136
				c-0.002-11.295,4.479-22.129,12.459-30.123L210.374,197.231z"/>
			<path style="fill:#2296F3;" d="M400.07,315.332v59.136l-76.373-134.741l-24.064-42.496l87.979,87.979
				C395.591,293.203,400.072,304.037,400.07,315.332z"/>
		</g>
		<path style="fill:#FF5722;" d="M314.636,416.93c0.147-2.842,0.132-5.691-0.045-8.532c-0.353-12.241-3.461-24.244-9.093-35.118
			c-6.601-10.744-14.513-20.624-23.554-29.414c-10.329-10.936-18.075-29.691-4.702-41.489c-0.117,0.103-8.211-2.946-8.831-3.106
			c-6.534-1.869-13.43-2.084-20.068-0.626c-21.851,5.534-27.454,27.726-22.814,46.594c-10.191-3.317-21.378-0.933-29.331,6.251
			c-0.812,0.809-1.116,1.998-0.791,3.097c0.325,1.099,1.226,1.932,2.347,2.17c2.561,0.656,5.087,1.441,7.569,2.352
			c6.682,2.189,11.103,8.544,10.832,15.57c-1.104,3.876-3.333,7.338-6.405,9.947c-3.108,3.353-5.681,7.165-7.63,11.301
			c-3.162,6.388-4.813,13.418-4.825,20.545c0,28.643,26.318,51.862,58.784,51.862c16.117,0.128,31.667-5.944,43.432-16.961
			C308.86,442.31,314.289,429.947,314.636,416.93z"/>
		<path style="fill:#FEC108;" d="M186.737,468.335H323.27c9.426,0,17.067,7.641,17.067,17.067l0,0
			c0,9.426-7.641,17.067-17.067,17.067H186.737c-9.426,0-17.067-7.641-17.067-17.067l0,0
			C169.67,475.976,177.311,468.335,186.737,468.335z"/>
		<g>
			<path style="fill:#C52828;" d="M277.446,464.666c-2.122,0.844-4.323,1.473-6.571,1.877c-1.28,0.341-2.56,0.597-3.925,0.853
				c-1.792,0.341-3.584,0.512-5.376,0.683c-1.792,0.171-3.669,0.256-5.461,0.256c-1.94,0.017-3.878-0.098-5.803-0.341
				c-0.428,0.057-0.863,0.028-1.28-0.085v-0.171c-0.939-0.427-1.877-0.853-2.816-1.365c-12.544-6.229-24.917-16.555-25.003-29.952
				c0.118-7.391,3.49-14.354,9.216-19.029c4.352-3.755,9.643-6.315,13.909-10.069c4.189-3.288,7.21-7.835,8.619-12.971
				c0.896-5.843,1.154-11.766,0.768-17.664c0,0.427,2.048,1.365,2.389,1.621c7.239,4.854,12.434,12.207,14.592,20.651
				c0.345,1.577,0.602,3.173,0.768,4.779v0.085c-0.192,8.126-3.073,15.958-8.192,22.272c-0.171,0.341,3.84,1.963,4.182,2.048
				c1.555,0.441,3.162,0.671,4.779,0.683c3.189,0.017,6.331-0.776,9.131-2.304c1.405-0.865,2.6-2.03,3.499-3.413
				c0.807-1.385,1.411-2.88,1.792-4.437c0,0,1.792,1.877,1.963,2.133c0,0.023,0.008,0.045,0.024,0.061
				c0.016,0.016,0.038,0.025,0.061,0.024c0.683,1.109,1.28,2.219,1.877,3.413c0.998,2.171,1.797,4.427,2.389,6.741
				C295.749,444.447,289.447,458.088,277.446,464.666z"/>
			<path style="fill:#C52828;" d="M292.977,431.044c-0.592-2.314-1.392-4.571-2.389-6.741c-0.597-1.195-1.195-2.304-1.877-3.413
				c-1.129,11.591-6.365,22.395-14.763,30.464c-7.75,7.376-17.321,12.559-27.733,15.019c-1.024,0.256-1.963,0.512-2.987,0.683
				c1.913,0.415,3.851,0.7,5.803,0.853c0.417,0.113,0.852,0.142,1.28,0.085c1.924,0.244,3.863,0.358,5.803,0.341
				c1.792,0,3.669-0.085,5.461-0.256c1.792-0.171,3.584-0.341,5.376-0.683c1.365-0.256,2.645-0.512,3.925-0.853
				c2.247-0.404,4.449-1.033,6.571-1.877C289.447,458.088,295.749,444.447,292.977,431.044z"/>
		</g>
		<path style="fill:#D84315;" d="M314.651,416.964c-0.367,12.992-5.786,25.329-15.104,34.389
			c-6.282,6.03-13.833,10.579-22.101,13.312c12.001-6.578,18.303-20.219,15.531-33.621c-0.592-2.314-1.392-4.571-2.389-6.741
			c-0.597-1.195-1.195-2.304-1.877-3.413c0.171-1.28,0.256-2.645,0.341-3.925c0.142-2.844,0.114-5.693-0.085-8.533
			c-0.321-12.252-3.414-24.272-9.045-35.157c-6.592-10.757-14.504-20.648-23.552-29.44c-10.325-10.923-18.091-29.696-4.693-41.472
			c-0.085,0.085-4.608-1.536-7.168-2.475c1.244-0.529,2.528-0.957,3.84-1.28c6.638-1.44,13.529-1.205,20.053,0.683
			c0.597,0.171,8.704,3.157,8.875,3.072c-13.397,11.776-5.632,30.549,4.693,41.472c9.048,8.792,16.96,18.683,23.552,29.44
			c5.632,10.886,8.724,22.905,9.045,35.157C314.765,411.271,314.794,414.121,314.651,416.964z"/>
	</g>
	<g>
		<path d="M503.47,332.802c-4.713,0-8.533,3.821-8.533,8.533v8.358l-230.4-309.85V8.535c0-4.713-3.82-8.533-8.533-8.533
			s-8.533,3.821-8.533,8.533v31.311l-28.335,38.105c-5.156-27.86-28.018-49.013-56.193-51.994
			c-28.175-2.981-54.958,12.919-65.83,39.082C83.736,51.561,63.543,47.498,45.996,54.754S17.022,79.147,17.07,98.135
			c0.005,2.818,0.278,5.63,0.817,8.396c-13.739,7.435-20.675,23.25-16.838,38.393s17.466,25.748,33.088,25.744h116.055
			L17.07,349.693v-8.358c0-4.713-3.821-8.533-8.533-8.533s-8.533,3.821-8.533,8.533v34.133c-0.001,3.679,2.358,6.945,5.85,8.101
			s7.334-0.057,9.529-3.009l35.821-48.173v26.015c0.015,14.132,11.468,25.585,25.6,25.6h124.232
			c-2.14,2.872-4.006,5.938-5.573,9.158c-3.725,7.565-5.675,15.88-5.7,24.313c0.193,16.746,7.691,32.573,20.527,43.329h-22.552
			c-14.138,0-25.6,11.462-25.6,25.6c0,14.138,11.462,25.6,25.6,25.6H324.27c14.138,0,25.6-11.462,25.6-25.6
			c0-14.138-11.462-25.6-25.6-25.6h-20.453c0.881-0.766,1.8-1.492,2.636-2.304c10.886-10.563,17.235-24.947,17.704-40.108v-0.004
			c0.164-3.164,0.148-6.334-0.05-9.496c-0.431-8.445-1.906-16.805-4.391-24.887h115.487c14.132-0.015,25.585-11.468,25.6-25.6
			v-26.015l35.821,48.173c2.195,2.952,6.036,4.165,9.529,3.009c3.493-1.156,5.851-4.421,5.851-8.1v-34.133
			C512.003,336.622,508.183,332.802,503.47,332.802z M34.137,153.602c-9.422-0.009-17.057-7.645-17.067-17.067
			c-0.039-7.876,5.372-14.733,13.042-16.525c2.369-0.556,4.388-2.097,5.549-4.235c1.161-2.138,1.354-4.671,0.531-6.96
			c-1.301-3.413-1.996-7.027-2.054-10.679c-0.048-14.939,10.982-27.6,25.786-29.599s28.798,7.283,32.714,21.699
			c1.117,4.076,5.049,6.72,9.245,6.217c4.196-0.503,7.392-4.001,7.514-8.225c0.735-25.637,21.927-45.93,47.572-45.554
			c25.645,0.376,46.232,21.281,46.216,46.929c-0.004,4.062-0.558,8.105-1.647,12.018l-38.654,51.982H34.137z M392.537,343.098
			l-53.48-94.377l43.484,43.484c6.421,6.388,10.021,15.08,9.996,24.137L392.537,343.098z M293.299,202.598l93.125,164.338h-74.488
			c-6.616-10.067-14.252-19.425-22.788-27.925c-5.631-5.456-9.011-12.827-9.471-20.654c0.094-3.32,1.616-6.438,4.175-8.554
			l0.071-0.058c2.375-2.119,3.373-5.384,2.589-8.469c-0.784-3.085-3.22-5.477-6.318-6.206c-0.896-0.296-2.783-0.988-4.454-1.6
			c-2.071-0.754-3.908-1.383-4.2-1.458c-7.914-2.256-16.271-2.474-24.292-0.633c-20.006,5.397-33.052,24.619-30.679,45.204
			c-9.451-0.257-18.608,3.302-25.404,9.875c-2.96,2.954-4.11,7.269-3.012,11.304c1.144,4.078,4.384,7.232,8.492,8.267
			c1.089,0.276,2.203,0.602,3.212,0.908h-74.275l93.125-164.338c0.067-0.108,0.129-0.221,0.188-0.329l37.108-65.489l37.165,65.584
			L293.299,202.598z M119.47,343.098l0-26.755c-0.025-9.058,3.574-17.749,9.996-24.137l43.484-43.484L119.47,343.098z
			 M230.72,437.356c0.167-4.881,2.455-9.446,6.267-12.5c1.919-1.559,3.933-2.998,6.029-4.308c2.754-1.734,5.39-3.648,7.892-5.729
			c5.35-4.274,9.251-10.094,11.171-16.667c0.549,1.264,0.992,2.571,1.325,3.908c0.283,1.122,0.466,2.267,0.546,3.421
			c-0.456,6.22-2.821,12.148-6.771,16.975c-1.476,2.278-1.795,5.118-0.863,7.667c0.446,1.208,1.804,4.875,9.712,7.187
			c2.318,0.686,4.721,1.041,7.138,1.054c4.449,0.063,8.841-1.002,12.767-3.096c1.116,9.186-3.372,18.148-11.396,22.757
			c-5.64,1.827-11.53,2.764-17.459,2.777c-1.466,0-2.909-0.083-4.343-0.19C246.723,457.782,230.836,449.2,230.72,437.356z
			 M332.803,486.402c-0.006,4.71-3.823,8.527-8.533,8.533H187.737c-4.713,0-8.533-3.821-8.533-8.533
			c0-4.713,3.821-8.533,8.533-8.533H324.27C328.98,477.875,332.797,481.691,332.803,486.402z M302.981,434.421
			c-0.164-1.507-0.419-3.002-0.766-4.478c-0.705-2.875-1.7-5.672-2.971-8.346c-0.746-1.594-1.609-3.13-2.583-4.596
			c-0.125-0.183-0.683-0.905-1.362-1.683l-0.629-0.729c-1.791-2.558-4.837-3.933-7.94-3.586c-3.104,0.347-5.77,2.362-6.951,5.253
			c-0.054,0.137-0.108,0.275-0.154,0.408c-0.254,0.691-0.458,1.371-0.654,2.05c-0.071,0.229-0.127,0.463-0.167,0.7
			c-0.213,0.304-0.49,0.557-0.813,0.742c2.301-5.033,3.322-10.556,2.971-16.079c-0.158-2.075-0.492-4.132-1-6.15
			c-2.665-10.534-9.139-19.706-18.171-25.746c-0.129-0.088-0.729-0.438-1.192-0.7c-1.54-1.462-3.572-2.296-5.696-2.337
			c-4.689-0.037-8.551,3.672-8.704,8.358v0.038c-0.033,1.808,0,3.612,0.038,5.417c0.23,3.506,0.039,7.027-0.571,10.487
			c-1.013,3.361-3.069,6.311-5.871,8.425c-1.961,1.608-4.024,3.087-6.175,4.429c-2.696,1.702-5.281,3.572-7.742,5.6
			c-7.634,6.324-12.104,15.683-12.225,25.596c0.006,0.666,0.159,1.316,0.209,1.977c-4.532-6.444-6.987-14.12-7.034-21.998
			c0.022-5.818,1.372-11.554,3.946-16.771c1.657-3.527,3.865-6.768,6.542-9.6c4.141-3.709,7.029-8.613,8.262-14.033
			c0.084-0.512,0.075-1.018,0.119-1.528l0.015-0.072l-0.006-0.032c0.332-9.06-4.665-17.478-12.777-21.527
			c3.933-0.498,7.924-0.272,11.775,0.667c2.879,0.629,5.879-0.271,7.935-2.381c2.057-2.11,2.88-5.132,2.177-7.994
			c-2.758-11.213-2.358-31.475,16.629-36.284c4.371-0.969,8.902-0.965,13.271,0.013c-1.244,3.073-1.95,6.337-2.088,9.65
			c0.171,12.495,5.256,24.419,14.154,33.192c8.515,8.272,15.987,17.553,22.25,27.638c5.039,9.754,7.789,20.528,8.042,31.504
			c0.158,2.517,0.171,5.04,0.042,7.558C306.859,423.338,305.454,429.096,302.981,434.421z M443.737,358.402
			c-0.006,4.71-3.823,8.527-8.533,8.533h-25.6v-50.592c0.038-13.587-5.362-26.624-14.996-36.204l-87.116-87.12l-42.955-75.804
			V93.868c0-4.713-3.82-8.533-8.533-8.533s-8.533,3.821-8.533,8.533v23.347l-42.955,75.804l-87.116,87.12
			c-9.634,9.581-15.034,22.618-14.996,36.204v50.592h-25.6c-4.71-0.006-8.527-3.823-8.533-8.533v-48.966L215.876,110.93
			c0.065-0.075,0.113-0.157,0.175-0.235l39.952-53.729l187.733,252.469V358.402z"/>
		<path d="M375.56,156.521c0.03,0.956,0.22,1.9,0.562,2.793l0.015,0.075c0.391,0.896,0.934,1.718,1.607,2.428
			c0.163,0.178,0.361,0.312,0.541,0.477c0.592,0.546,1.259,1.005,1.982,1.361c0.148,0.073,0.242,0.206,0.396,0.272
			c10.498,4.474,21.797,6.767,33.208,6.742c47.128,0,85.333-38.205,85.333-85.333S460.998,0.002,413.87,0.002
			c-11.345-0.023-22.578,2.248-33.025,6.674l-0.101,0.037l-0.083,0.03c-0.251,0.153-0.494,0.319-0.727,0.499
			c-0.718,0.354-1.382,0.81-1.97,1.353c-0.441,0.505-0.819,1.06-1.127,1.655c-0.26,0.325-0.494,0.669-0.701,1.03l-0.015,0.075
			c-0.342,0.893-0.532,1.837-0.562,2.793c-0.008,0.156-0.09,0.309-0.09,0.464c0,0.065,0.037,0.131,0.039,0.196
			c0.02,1.052,0.235,2.091,0.632,3.066l0.013,0.06c0.174,0.291,0.366,0.572,0.575,0.839c0.338,0.671,0.765,1.294,1.269,1.852
			c0.55,0.493,1.164,0.911,1.824,1.242c0.276,0.216,0.567,0.414,0.869,0.592c25.28,10.667,41.712,35.437,41.712,62.875
			s-16.433,52.208-41.712,62.875c-0.307,0.18-0.601,0.381-0.881,0.6c-1.38,0.608-2.482,1.712-3.086,3.093
			c-0.208,0.265-0.398,0.543-0.57,0.832l-0.013,0.06c-0.398,0.974-0.612,2.014-0.632,3.066c-0.002,0.066-0.039,0.131-0.039,0.196
			C375.47,156.212,375.552,156.365,375.56,156.521z M439.47,85.335c-0.008-26.615-12.489-51.688-33.719-67.739
			c25.178-3.025,49.957,8.161,64.342,29.044c14.386,20.884,16.006,48.022,4.207,70.468s-35.071,36.5-60.43,36.493
			c-2.714-0.016-5.425-0.193-8.119-0.529C426.981,137.022,439.462,111.95,439.47,85.335z"/>
		<path d="M85.337,401.068c-4.713,0-8.533,3.82-8.533,8.533v25.602l-10.242-13.656c-2.828-3.769-8.176-4.532-11.946-1.704
			c-3.769,2.828-4.532,8.176-1.704,11.946l25.6,34.133c0.107,0.144,0.286,0.201,0.402,0.336c0.564,0.64,1.223,1.191,1.954,1.632
			c0.284,0.22,0.582,0.421,0.892,0.602c2.253,1.124,4.903,1.124,7.155,0c0.31-0.181,0.608-0.382,0.892-0.602
			c0.731-0.441,1.39-0.991,1.954-1.632c0.116-0.135,0.295-0.192,0.402-0.336l25.6-34.133c1.83-2.438,2.219-5.667,1.022-8.471
			c-1.197-2.804-3.799-4.756-6.825-5.121c-3.026-0.365-6.018,0.912-7.847,3.35L93.87,435.203v-25.602
			C93.87,404.889,90.05,401.068,85.337,401.068z"/>
		<path d="M426.67,401.068c-4.713,0-8.533,3.82-8.533,8.533v25.602l-10.242-13.656c-2.828-3.769-8.176-4.532-11.946-1.704
			c-3.769,2.828-4.532,8.176-1.704,11.946l25.6,34.133c0.107,0.144,0.286,0.201,0.402,0.336c0.564,0.641,1.223,1.191,1.954,1.632
			c0.284,0.22,0.582,0.421,0.892,0.602c2.253,1.124,4.903,1.124,7.155,0c0.31-0.181,0.608-0.382,0.892-0.602
			c0.731-0.441,1.39-0.991,1.954-1.632c0.116-0.135,0.295-0.192,0.402-0.336l25.6-34.133c1.829-2.438,2.219-5.667,1.022-8.471
			c-1.197-2.804-3.799-4.756-6.825-5.121c-3.026-0.365-6.018,0.912-7.847,3.35l-10.243,13.656v-25.602
			C435.203,404.889,431.383,401.068,426.67,401.068z"/>
	</g>
</g>
<g>
</g>
<g>
</g>
<g>
</g>
<g>
</g>
<g>
</g>
<g>
</g>
<g>
</g>
<g>
</g>
<g>
</g>
<g>
</g>
<g>
</g>
<g>
</g>
<g>
</g>
<g>
</g>
<g>
</g>
</svg>
