<svg xmlns="http://www.w3.org/2000/svg" xmlns:xlink="http://www.w3.org/1999/xlink" width="500" zoomAndPan="magnify" viewBox="0 0 375 374.999991" height="500" preserveAspectRatio="xMidYMid meet" version="1.0"><defs><clipPath id="cef21f645a"><path d="M 153 198 L 217 198 L 217 287.164062 L 153 287.164062 Z M 153 198 " clip-rule="nonzero"/></clipPath><clipPath id="27a8887b90"><path d="M 329 217 L 355 217 L 355 287.164062 L 329 287.164062 Z M 329 217 " clip-rule="nonzero"/></clipPath><clipPath id="aa6ff5f45a"><path d="M 334 255 L 355 255 L 355 287.164062 L 334 287.164062 Z M 334 255 " clip-rule="nonzero"/></clipPath><clipPath id="8192e9dbc1"><path d="M 193 45.664062 L 315 45.664062 L 315 99 L 193 99 Z M 193 45.664062 " clip-rule="nonzero"/></clipPath><clipPath id="2e084d0ea9"><path d="M 153 245 L 179 245 L 179 287.164062 L 153 287.164062 Z M 153 245 " clip-rule="nonzero"/></clipPath></defs><path fill="#e64c3c" d="M 66.078125 167.289062 L 27.378906 167.289062 C 27.0625 167.289062 26.746094 167.257812 26.433594 167.195312 C 26.125 167.132812 25.820312 167.039062 25.527344 166.917969 C 25.234375 166.796875 24.957031 166.648438 24.691406 166.472656 C 24.425781 166.296875 24.183594 166.09375 23.957031 165.871094 C 23.734375 165.644531 23.53125 165.402344 23.355469 165.136719 C 23.179688 164.875 23.03125 164.59375 22.910156 164.300781 C 22.789062 164.007812 22.695312 163.707031 22.632812 163.394531 C 22.574219 163.082031 22.542969 162.769531 22.542969 162.449219 L 22.542969 152.773438 C 22.542969 151.820312 22.632812 150.878906 22.820312 149.945312 C 23.007812 149.007812 23.28125 148.101562 23.644531 147.222656 C 24.011719 146.339844 24.457031 145.503906 24.988281 144.710938 C 25.515625 143.921875 26.117188 143.1875 26.792969 142.511719 C 27.464844 141.839844 28.199219 141.238281 28.992188 140.707031 C 29.785156 140.179688 30.621094 139.730469 31.5 139.367188 C 32.378906 139.003906 33.289062 138.726562 34.222656 138.542969 C 35.15625 138.355469 36.101562 138.261719 37.054688 138.261719 L 55 138.261719 Z M 66.078125 167.289062 " fill-opacity="1" fill-rule="nonzero"/><path fill="#e64c3c" d="M 259.578125 167.289062 L 298.277344 167.289062 C 298.597656 167.289062 298.910156 167.257812 299.222656 167.195312 C 299.535156 167.132812 299.835938 167.039062 300.128906 166.917969 C 300.421875 166.796875 300.703125 166.648438 300.964844 166.472656 C 301.230469 166.296875 301.476562 166.09375 301.699219 165.871094 C 301.925781 165.644531 302.125 165.402344 302.300781 165.136719 C 302.476562 164.875 302.625 164.59375 302.75 164.300781 C 302.871094 164.007812 302.960938 163.707031 303.023438 163.394531 C 303.085938 163.082031 303.117188 162.769531 303.117188 162.449219 L 303.117188 152.773438 C 303.117188 151.820312 303.023438 150.878906 302.835938 149.945312 C 302.652344 149.007812 302.375 148.101562 302.011719 147.222656 C 301.648438 146.339844 301.199219 145.503906 300.671875 144.710938 C 300.140625 143.921875 299.539062 143.1875 298.867188 142.511719 C 298.191406 141.839844 297.457031 141.238281 296.667969 140.707031 C 295.875 140.179688 295.039062 139.730469 294.15625 139.367188 C 293.277344 139.003906 292.371094 138.726562 291.433594 138.542969 C 290.5 138.355469 289.558594 138.261719 288.605469 138.261719 L 270.65625 138.261719 Z M 259.578125 167.289062 " fill-opacity="1" fill-rule="nonzero"/><path fill="#2fa8cc" d="M 303.117188 222.097656 L 303.117188 268.875 C 303.117188 269.828125 303.023438 270.773438 302.835938 271.707031 C 302.652344 272.640625 302.375 273.546875 302.011719 274.429688 C 301.648438 275.308594 301.199219 276.144531 300.671875 276.9375 C 300.140625 277.730469 299.539062 278.464844 298.867188 279.136719 C 298.191406 279.8125 297.457031 280.414062 296.667969 280.941406 C 295.875 281.472656 295.039062 281.917969 294.15625 282.28125 C 293.277344 282.648438 292.371094 282.921875 291.433594 283.109375 C 290.5 283.292969 289.558594 283.386719 288.605469 283.386719 L 37.054688 283.386719 C 36.101562 283.386719 35.15625 283.292969 34.222656 283.109375 C 33.289062 282.921875 32.378906 282.648438 31.5 282.28125 C 30.621094 281.917969 29.785156 281.472656 28.992188 280.941406 C 28.199219 280.414062 27.464844 279.8125 26.792969 279.136719 C 26.117188 278.464844 25.515625 277.730469 24.988281 276.9375 C 24.457031 276.144531 24.011719 275.308594 23.644531 274.429688 C 23.28125 273.546875 23.007812 272.640625 22.820312 271.707031 C 22.632812 270.773438 22.542969 269.828125 22.542969 268.875 L 22.542969 222.097656 C 22.539062 219.496094 22.75 216.914062 23.164062 214.347656 C 23.582031 211.78125 24.199219 209.265625 25.023438 206.796875 C 25.84375 204.332031 26.859375 201.949219 28.066406 199.644531 C 29.273438 197.34375 30.65625 195.152344 32.214844 193.070312 L 45.714844 175.074219 L 51.566406 167.289062 L 58.675781 106.964844 C 58.863281 105.378906 59.175781 103.820312 59.617188 102.285156 C 60.058594 100.753906 60.621094 99.265625 61.308594 97.824219 C 61.992188 96.386719 62.792969 95.011719 63.707031 93.703125 C 64.621094 92.394531 65.632812 91.167969 66.75 90.027344 C 67.863281 88.886719 69.066406 87.84375 70.351562 86.902344 C 71.640625 85.957031 72.996094 85.125 74.417969 84.40625 C 75.84375 83.6875 77.316406 83.089844 78.839844 82.613281 C 80.363281 82.136719 81.914062 81.789062 83.492188 81.566406 C 109.804688 77.777344 136.25 75.710938 162.828125 75.375 C 177.4375 75.375 192.433594 76.246094 206.316406 77.503906 C 219.816406 78.710938 232.296875 80.210938 242.164062 81.566406 C 243.742188 81.789062 245.296875 82.136719 246.820312 82.613281 C 248.339844 83.089844 249.816406 83.6875 251.238281 84.40625 C 252.664062 85.125 254.019531 85.957031 255.304688 86.902344 C 256.59375 87.84375 257.792969 88.886719 258.910156 90.027344 C 260.023438 91.167969 261.039062 92.394531 261.953125 93.703125 C 262.863281 95.011719 263.664062 96.386719 264.351562 97.824219 C 265.035156 99.265625 265.601562 100.753906 266.042969 102.285156 C 266.484375 103.820312 266.796875 105.378906 266.980469 106.964844 L 274.089844 167.289062 L 293.441406 193.070312 C 295 195.152344 296.386719 197.34375 297.59375 199.644531 C 298.796875 201.949219 299.8125 204.332031 300.636719 206.796875 C 301.457031 209.265625 302.078125 211.78125 302.492188 214.347656 C 302.910156 216.914062 303.117188 219.496094 303.117188 222.097656 Z M 303.117188 222.097656 " fill-opacity="1" fill-rule="nonzero"/><path fill="#67b9cc" d="M 206.316406 77.503906 C 206.238281 81.925781 205.898438 86.328125 205.292969 90.710938 C 204.6875 95.09375 203.824219 99.421875 202.699219 103.703125 C 201.578125 107.980469 200.203125 112.179688 198.578125 116.292969 C 196.953125 120.40625 195.089844 124.410156 192.988281 128.300781 C 190.882812 132.195312 188.558594 135.945312 186.003906 139.558594 C 183.453125 143.171875 180.695312 146.621094 177.730469 149.90625 C 174.765625 153.191406 171.617188 156.285156 168.285156 159.191406 C 164.949219 162.101562 161.453125 164.796875 157.796875 167.289062 L 51.566406 167.289062 L 58.675781 106.964844 C 58.863281 105.378906 59.175781 103.820312 59.617188 102.285156 C 60.058594 100.753906 60.621094 99.265625 61.308594 97.824219 C 61.992188 96.386719 62.792969 95.011719 63.707031 93.703125 C 64.621094 92.394531 65.632812 91.167969 66.75 90.027344 C 67.863281 88.886719 69.066406 87.84375 70.351562 86.902344 C 71.640625 85.957031 72.996094 85.125 74.417969 84.40625 C 75.84375 83.6875 77.316406 83.089844 78.839844 82.613281 C 80.363281 82.136719 81.914062 81.789062 83.492188 81.566406 C 109.804688 77.777344 136.25 75.710938 162.828125 75.375 C 177.4375 75.375 192.433594 76.246094 206.316406 77.503906 Z M 206.316406 77.503906 " fill-opacity="1" fill-rule="nonzero"/><path fill="#35495e" d="M 240.230469 278.550781 L 288.605469 278.550781 L 288.605469 302.738281 C 288.605469 303.371094 288.542969 304 288.417969 304.625 C 288.292969 305.246094 288.109375 305.851562 287.867188 306.441406 C 287.625 307.027344 287.328125 307.585938 286.972656 308.113281 C 286.621094 308.640625 286.21875 309.128906 285.769531 309.578125 C 285.320312 310.027344 284.832031 310.429688 284.304688 310.78125 C 283.777344 311.136719 283.21875 311.433594 282.632812 311.675781 C 282.042969 311.917969 281.4375 312.101562 280.816406 312.226562 C 280.191406 312.351562 279.5625 312.414062 278.929688 312.414062 L 249.902344 312.414062 C 249.269531 312.414062 248.640625 312.351562 248.015625 312.226562 C 247.394531 312.101562 246.789062 311.917969 246.203125 311.675781 C 245.613281 311.433594 245.058594 311.136719 244.527344 310.78125 C 244 310.429688 243.511719 310.027344 243.0625 309.578125 C 242.613281 309.128906 242.210938 308.640625 241.859375 308.113281 C 241.507812 307.585938 241.207031 307.027344 240.964844 306.441406 C 240.722656 305.851562 240.539062 305.246094 240.414062 304.625 C 240.289062 304 240.230469 303.371094 240.230469 302.738281 Z M 240.230469 278.550781 " fill-opacity="1" fill-rule="nonzero"/><path fill="#35495e" d="M 37.054688 278.550781 L 85.429688 278.550781 L 85.429688 302.738281 C 85.429688 303.371094 85.367188 304 85.242188 304.625 C 85.117188 305.246094 84.933594 305.851562 84.691406 306.441406 C 84.449219 307.027344 84.152344 307.585938 83.796875 308.113281 C 83.445312 308.640625 83.042969 309.128906 82.59375 309.578125 C 82.144531 310.027344 81.65625 310.429688 81.128906 310.78125 C 80.601562 311.136719 80.042969 311.433594 79.457031 311.675781 C 78.871094 311.917969 78.265625 312.101562 77.640625 312.226562 C 77.019531 312.351562 76.390625 312.414062 75.753906 312.414062 L 46.730469 312.414062 C 46.09375 312.414062 45.464844 312.351562 44.839844 312.226562 C 44.21875 312.101562 43.613281 311.917969 43.027344 311.675781 C 42.441406 311.433594 41.882812 311.136719 41.355469 310.78125 C 40.824219 310.429688 40.335938 310.027344 39.886719 309.578125 C 39.4375 309.128906 39.039062 308.640625 38.683594 308.113281 C 38.332031 307.585938 38.035156 307.027344 37.789062 306.441406 C 37.546875 305.851562 37.363281 305.246094 37.238281 304.625 C 37.117188 304 37.054688 303.371094 37.054688 302.738281 Z M 37.054688 278.550781 " fill-opacity="1" fill-rule="nonzero"/><path fill="#e64c3c" d="M 303.117188 222.097656 L 303.117188 268.875 C 303.117188 269.828125 303.023438 270.773438 302.835938 271.707031 C 302.652344 272.640625 302.375 273.546875 302.011719 274.429688 C 301.648438 275.308594 301.199219 276.144531 300.671875 276.9375 C 300.140625 277.730469 299.539062 278.464844 298.867188 279.136719 C 298.191406 279.8125 297.457031 280.414062 296.667969 280.941406 C 295.875 281.472656 295.039062 281.917969 294.15625 282.28125 C 293.277344 282.648438 292.371094 282.921875 291.433594 283.109375 C 290.5 283.292969 289.558594 283.386719 288.605469 283.386719 L 37.054688 283.386719 C 36.101562 283.386719 35.15625 283.292969 34.222656 283.109375 C 33.289062 282.921875 32.378906 282.648438 31.5 282.28125 C 30.621094 281.917969 29.785156 281.472656 28.992188 280.941406 C 28.199219 280.414062 27.464844 279.8125 26.792969 279.136719 C 26.117188 278.464844 25.515625 277.730469 24.988281 276.9375 C 24.457031 276.144531 24.011719 275.308594 23.644531 274.429688 C 23.28125 273.546875 23.007812 272.640625 22.820312 271.707031 C 22.632812 270.773438 22.542969 269.828125 22.542969 268.875 L 22.542969 222.097656 C 22.539062 219.496094 22.75 216.914062 23.164062 214.347656 C 23.582031 211.78125 24.199219 209.265625 25.023438 206.796875 C 25.84375 204.332031 26.859375 201.949219 28.066406 199.644531 C 29.273438 197.34375 30.65625 195.152344 32.214844 193.070312 L 51.566406 167.289062 L 274.089844 167.289062 L 293.441406 193.070312 C 295 195.152344 296.386719 197.34375 297.59375 199.644531 C 298.796875 201.949219 299.8125 204.332031 300.636719 206.796875 C 301.457031 209.265625 302.078125 211.78125 302.492188 214.347656 C 302.910156 216.914062 303.117188 219.496094 303.117188 222.097656 Z M 303.117188 222.097656 " fill-opacity="1" fill-rule="nonzero"/><path fill="#3f5c6c" d="M 109.617188 225.335938 L 216.042969 225.335938 C 216.359375 225.335938 216.671875 225.367188 216.984375 225.429688 C 217.296875 225.492188 217.597656 225.585938 217.894531 225.707031 C 218.1875 225.828125 218.464844 225.976562 218.730469 226.152344 C 218.992188 226.328125 219.238281 226.53125 219.460938 226.753906 C 219.6875 226.980469 219.886719 227.222656 220.0625 227.488281 C 220.238281 227.75 220.390625 228.03125 220.511719 228.324219 C 220.632812 228.617188 220.722656 228.917969 220.785156 229.230469 C 220.847656 229.542969 220.878906 229.855469 220.878906 230.175781 L 220.878906 259.199219 C 220.878906 259.519531 220.847656 259.832031 220.785156 260.144531 C 220.722656 260.457031 220.632812 260.757812 220.511719 261.050781 C 220.390625 261.34375 220.238281 261.625 220.0625 261.886719 C 219.886719 262.152344 219.6875 262.394531 219.460938 262.621094 C 219.238281 262.84375 218.992188 263.046875 218.730469 263.222656 C 218.464844 263.398438 218.1875 263.546875 217.894531 263.667969 C 217.597656 263.789062 217.296875 263.882812 216.984375 263.945312 C 216.671875 264.007812 216.359375 264.039062 216.042969 264.039062 L 109.617188 264.039062 C 109.296875 264.039062 108.984375 264.007812 108.671875 263.945312 C 108.359375 263.882812 108.058594 263.789062 107.765625 263.667969 C 107.472656 263.546875 107.191406 263.398438 106.929688 263.222656 C 106.664062 263.046875 106.421875 262.84375 106.195312 262.621094 C 105.972656 262.394531 105.769531 262.152344 105.59375 261.886719 C 105.417969 261.625 105.269531 261.34375 105.148438 261.050781 C 105.027344 260.757812 104.933594 260.457031 104.871094 260.144531 C 104.808594 259.832031 104.777344 259.519531 104.777344 259.199219 L 104.777344 230.175781 C 104.777344 229.855469 104.808594 229.542969 104.871094 229.230469 C 104.933594 228.917969 105.027344 228.617188 105.148438 228.324219 C 105.269531 228.03125 105.417969 227.75 105.59375 227.488281 C 105.769531 227.222656 105.972656 226.980469 106.195312 226.753906 C 106.421875 226.53125 106.664062 226.328125 106.929688 226.152344 C 107.191406 225.976562 107.472656 225.828125 107.765625 225.707031 C 108.058594 225.585938 108.359375 225.492188 108.671875 225.429688 C 108.984375 225.367188 109.296875 225.335938 109.617188 225.335938 Z M 109.617188 225.335938 " fill-opacity="1" fill-rule="nonzero"/><path fill="#f0c419" d="M 80.589844 210.824219 L 80.589844 220.5 C 80.589844 221.453125 80.5 222.398438 80.3125 223.332031 C 80.125 224.265625 79.851562 225.171875 79.488281 226.054688 C 79.121094 226.933594 78.675781 227.769531 78.144531 228.5625 C 77.617188 229.355469 77.015625 230.089844 76.339844 230.761719 C 75.667969 231.4375 74.933594 232.039062 74.140625 232.566406 C 73.347656 233.097656 72.511719 233.542969 71.632812 233.90625 C 70.753906 234.273438 69.84375 234.546875 68.910156 234.734375 C 67.976562 234.917969 67.03125 235.011719 66.078125 235.011719 L 22.542969 235.011719 L 22.542969 222.097656 C 22.546875 216.566406 23.480469 211.195312 25.347656 205.988281 L 75.753906 205.988281 C 76.070312 205.988281 76.386719 206.019531 76.699219 206.082031 C 77.007812 206.140625 77.3125 206.234375 77.605469 206.355469 C 77.898438 206.476562 78.175781 206.625 78.441406 206.800781 C 78.707031 206.980469 78.949219 207.179688 79.175781 207.40625 C 79.398438 207.628906 79.601562 207.875 79.777344 208.136719 C 79.953125 208.402344 80.101562 208.679688 80.222656 208.972656 C 80.34375 209.265625 80.4375 209.570312 80.5 209.882812 C 80.558594 210.191406 80.589844 210.507812 80.589844 210.824219 Z M 80.589844 210.824219 " fill-opacity="1" fill-rule="nonzero"/><path fill="#f0c419" d="M 303.117188 222.097656 L 303.117188 235.011719 L 259.578125 235.011719 C 258.625 235.011719 257.683594 234.917969 256.746094 234.734375 C 255.8125 234.546875 254.90625 234.273438 254.023438 233.90625 C 253.144531 233.542969 252.308594 233.097656 251.515625 232.566406 C 250.722656 232.039062 249.992188 231.4375 249.316406 230.761719 C 248.644531 230.089844 248.042969 229.355469 247.511719 228.5625 C 246.984375 227.769531 246.535156 226.933594 246.171875 226.054688 C 245.804688 225.171875 245.53125 224.265625 245.34375 223.332031 C 245.160156 222.398438 245.066406 221.453125 245.066406 220.5 L 245.066406 210.824219 C 245.066406 210.507812 245.097656 210.191406 245.160156 209.882812 C 245.222656 209.570312 245.3125 209.265625 245.433594 208.972656 C 245.554688 208.679688 245.707031 208.402344 245.882812 208.136719 C 246.058594 207.875 246.257812 207.628906 246.484375 207.40625 C 246.707031 207.179688 246.953125 206.980469 247.214844 206.804688 C 247.480469 206.625 247.757812 206.476562 248.050781 206.355469 C 248.347656 206.234375 248.648438 206.140625 248.960938 206.082031 C 249.273438 206.019531 249.585938 205.988281 249.902344 205.988281 L 300.3125 205.988281 C 302.175781 211.195312 303.113281 216.566406 303.117188 222.097656 Z M 303.117188 222.097656 " fill-opacity="1" fill-rule="nonzero"/><path fill="#f29c1f" d="M 303.117188 249.523438 L 303.117188 259.199219 L 283.765625 259.199219 C 283.449219 259.199219 283.132812 259.167969 282.824219 259.105469 C 282.511719 259.046875 282.207031 258.953125 281.914062 258.832031 C 281.621094 258.710938 281.34375 258.5625 281.078125 258.382812 C 280.816406 258.207031 280.570312 258.007812 280.347656 257.78125 C 280.121094 257.558594 279.921875 257.3125 279.742188 257.050781 C 279.566406 256.785156 279.417969 256.507812 279.296875 256.214844 C 279.175781 255.921875 279.082031 255.617188 279.023438 255.304688 C 278.960938 254.996094 278.929688 254.679688 278.929688 254.363281 C 278.929688 254.042969 278.960938 253.730469 279.023438 253.417969 C 279.082031 253.105469 279.175781 252.804688 279.296875 252.511719 C 279.417969 252.21875 279.566406 251.9375 279.742188 251.675781 C 279.921875 251.410156 280.121094 251.167969 280.347656 250.941406 C 280.570312 250.71875 280.816406 250.515625 281.078125 250.339844 C 281.34375 250.164062 281.621094 250.015625 281.914062 249.894531 C 282.207031 249.773438 282.511719 249.679688 282.824219 249.617188 C 283.132812 249.554688 283.449219 249.523438 283.765625 249.523438 Z M 303.117188 249.523438 " fill-opacity="1" fill-rule="nonzero"/><path fill="#f29c1f" d="M 46.730469 254.363281 C 46.730469 254.679688 46.699219 254.996094 46.636719 255.304688 C 46.574219 255.617188 46.480469 255.921875 46.359375 256.214844 C 46.238281 256.507812 46.089844 256.785156 45.914062 257.050781 C 45.738281 257.3125 45.535156 257.558594 45.3125 257.78125 C 45.085938 258.007812 44.84375 258.207031 44.578125 258.382812 C 44.316406 258.5625 44.035156 258.710938 43.742188 258.832031 C 43.449219 258.953125 43.148438 259.046875 42.835938 259.105469 C 42.523438 259.167969 42.210938 259.199219 41.890625 259.199219 L 22.542969 259.199219 L 22.542969 249.523438 L 41.890625 249.523438 C 42.210938 249.523438 42.523438 249.554688 42.835938 249.617188 C 43.148438 249.679688 43.449219 249.773438 43.742188 249.894531 C 44.035156 250.015625 44.316406 250.164062 44.578125 250.339844 C 44.84375 250.515625 45.085938 250.71875 45.3125 250.941406 C 45.535156 251.167969 45.738281 251.410156 45.914062 251.675781 C 46.089844 251.9375 46.238281 252.21875 46.359375 252.511719 C 46.480469 252.804688 46.574219 253.105469 46.636719 253.417969 C 46.699219 253.730469 46.730469 254.042969 46.730469 254.363281 Z M 46.730469 254.363281 " fill-opacity="1" fill-rule="nonzero"/><path fill="#d6f3ff" d="M 351.1875 283.625 L 344.121094 240.828125 C 342.167969 229.011719 334.308594 219.011719 323.28125 214.328125 L 295.140625 202.375 L 213.308594 202.375 L 185.164062 214.328125 C 174.140625 219.011719 166.277344 229.011719 164.328125 240.828125 L 157.261719 283.625 Z M 351.1875 283.625 " fill-opacity="1" fill-rule="nonzero"/><path fill="#9ee3ff" d="M 326.695312 283.625 L 319.054688 266.9375 L 336.339844 256.328125 L 351.105469 283.625 Z M 326.695312 283.625 " fill-opacity="1" fill-rule="nonzero"/><path fill="#344db3" d="M 304.171875 94.953125 L 309.390625 83.199219 C 313.351562 74.28125 308.570312 63.902344 299.242188 61.167969 L 262.550781 50.40625 C 257.066406 48.800781 251.238281 48.800781 245.753906 50.40625 L 209.0625 61.167969 C 199.734375 63.902344 194.953125 74.28125 198.914062 83.199219 L 204.132812 94.953125 L 255.882812 101.949219 Z M 304.171875 94.953125 " fill-opacity="1" fill-rule="nonzero"/><path fill="#9ee3ff" d="M 225.050781 186.117188 L 213.308594 202.375 L 243.636719 220.542969 L 254.152344 195.011719 Z M 225.050781 186.117188 " fill-opacity="1" fill-rule="nonzero"/><path fill="#9ee3ff" d="M 283.253906 186.117188 L 295 202.375 L 264.667969 220.542969 L 254.152344 195.011719 Z M 283.253906 186.117188 " fill-opacity="1" fill-rule="nonzero"/><path fill="#fdcfa4" d="M 285.164062 185.402344 L 264.285156 193.183594 C 257.746094 195.621094 250.558594 195.621094 244.019531 193.183594 L 223.140625 185.402344 C 211.714844 181.144531 204.132812 170.195312 204.132812 157.949219 L 204.132812 108.949219 L 304.171875 108.949219 L 304.171875 157.949219 C 304.171875 170.195312 296.589844 181.144531 285.164062 185.402344 " fill-opacity="1" fill-rule="nonzero"/><path fill="#fdc590" d="M 285.304688 108.949219 L 285.304688 157.949219 C 285.304688 170.191406 277.722656 181.144531 266.296875 185.402344 L 245.417969 193.183594 C 245.1875 193.269531 244.953125 193.347656 244.71875 193.425781 C 251.066406 195.609375 257.980469 195.535156 264.285156 193.183594 L 285.164062 185.402344 C 296.589844 181.144531 304.171875 170.191406 304.171875 157.949219 L 304.171875 108.949219 Z M 285.304688 108.949219 " fill-opacity="1" fill-rule="nonzero"/><path fill="#344db3" d="M 204.132812 108.949219 C 204.132812 119.082031 212.308594 127.296875 222.390625 127.296875 L 285.914062 127.296875 C 296 127.296875 304.171875 119.082031 304.171875 108.949219 L 254.152344 101.949219 Z M 204.132812 108.949219 " fill-opacity="1" fill-rule="nonzero"/><path fill="#1c37a6" d="M 254.152344 101.949219 L 244.71875 103.269531 L 285.304688 108.949219 C 285.304688 119.082031 277.132812 127.296875 267.046875 127.296875 L 285.914062 127.296875 C 296 127.296875 304.171875 119.082031 304.171875 108.949219 Z M 254.152344 101.949219 " fill-opacity="1" fill-rule="nonzero"/><path fill="#ffbe00" d="M 204.132812 94.953125 L 304.171875 94.953125 L 304.171875 108.949219 L 204.132812 108.949219 Z M 204.132812 94.953125 " fill-opacity="1" fill-rule="nonzero"/><path fill="#1c37a6" d="M 299.242188 61.167969 L 262.550781 50.410156 C 257.066406 48.800781 251.238281 48.800781 245.753906 50.410156 L 244.71875 50.710938 L 280.375 61.167969 C 289.703125 63.902344 294.484375 74.28125 290.523438 83.199219 L 285.304688 94.953125 L 304.171875 94.953125 L 309.390625 83.199219 C 313.351562 74.28125 308.570312 63.902344 299.242188 61.167969 " fill-opacity="1" fill-rule="nonzero"/><path fill="#f0b300" d="M 285.304688 108.949219 L 304.171875 108.949219 L 304.171875 94.953125 L 285.304688 94.953125 Z M 285.304688 108.949219 " fill-opacity="1" fill-rule="nonzero"/><path fill="#ffbe00" d="M 243.636719 220.542969 L 254.152344 195.011719 L 264.667969 220.542969 L 260.753906 231.378906 L 248.375 231.378906 Z M 243.636719 220.542969 " fill-opacity="1" fill-rule="nonzero"/><path fill="#9ee3ff" d="M 181.671875 283.625 L 189.3125 266.9375 L 172.027344 256.328125 L 157.261719 283.625 Z M 181.671875 283.625 " fill-opacity="1" fill-rule="nonzero"/><path fill="#fdcfa4" d="M 175.09375 249.367188 L 171.132812 257.472656 C 169.53125 260.75 169.820312 264.640625 171.894531 267.644531 L 172.082031 267.917969 C 173.96875 270.652344 177.078125 272.285156 180.398438 272.285156 C 184.128906 272.285156 187.554688 270.230469 189.3125 266.9375 L 199.179688 248.433594 " fill-opacity="1" fill-rule="nonzero"/><path fill="#fdcfa4" d="M 333.269531 249.367188 L 337.230469 257.472656 C 338.835938 260.75 338.546875 264.640625 336.472656 267.644531 L 336.28125 267.917969 C 334.398438 270.652344 331.289062 272.285156 327.96875 272.285156 C 324.238281 272.285156 320.8125 270.230469 319.054688 266.9375 L 309.1875 248.433594 " fill-opacity="1" fill-rule="nonzero"/><path fill="#8986a6" d="M 262.21875 283.128906 C 261.667969 280.59375 261.382812 277.984375 261.382812 275.332031 L 261.382812 239.464844 C 286.070312 242.359375 306.347656 259.894531 313.269531 283.128906 M 195.035156 283.128906 C 201.957031 259.894531 222.234375 242.359375 246.921875 239.464844 L 246.921875 275.332031 C 246.921875 277.984375 246.636719 280.59375 246.089844 283.128906 M 328.242188 283.128906 C 320.304688 249.558594 290.144531 224.578125 254.152344 224.578125 C 218.160156 224.578125 188 249.558594 180.066406 283.128906 " fill-opacity="1" fill-rule="nonzero"/><path fill="#fdcfa4" d="M 175.09375 249.367188 C 175.09375 249.367188 186.984375 262.488281 197.296875 257.054688 C 207.609375 251.617188 206.96875 234.007812 202.742188 232.117188 C 196.835938 229.472656 180.878906 237.914062 175.09375 249.367188 " fill-opacity="1" fill-rule="nonzero"/><path fill="#fdcfa4" d="M 333.269531 249.367188 C 333.269531 249.367188 321.382812 262.488281 311.070312 257.054688 C 300.753906 251.617188 301.398438 234.007812 305.621094 232.117188 C 311.53125 229.472656 327.488281 237.914062 333.269531 249.367188 " fill-opacity="1" fill-rule="nonzero"/><g clip-path="url(#cef21f645a)"><path stroke-linecap="round" transform="matrix(0.471678, 0, 0, -0.471678, 213.306348, 202.373629)" fill="none" stroke-linejoin="round" d="M -0.0035206 -0.00290641 L -59.664154 -25.344597 C -83.034824 -35.274233 -99.705681 -56.475124 -103.838199 -81.526959 L -118.81961 -172.260149 " stroke="#000000" stroke-width="15" stroke-opacity="1" stroke-miterlimit="10"/></g><path stroke-linecap="round" transform="matrix(0.471678, 0, 0, -0.471678, 315.547337, 211.043072)" fill="none" stroke-linejoin="round" d="M -0.000980285 0.000218351 L -43.264049 18.377085 " stroke="#000000" stroke-width="15" stroke-opacity="1" stroke-miterlimit="10"/><g clip-path="url(#27a8887b90)"><path stroke-linecap="round" transform="matrix(0.471678, 0, 0, -0.471678, 351.186428, 283.626836)" fill="none" stroke-linejoin="round" d="M 0.00227308 0.00389201 L -14.979138 90.737082 C -17.720347 107.325123 -25.952256 122.215437 -37.977136 133.27137 " stroke="#000000" stroke-width="15" stroke-opacity="1" stroke-miterlimit="10"/></g><g clip-path="url(#aa6ff5f45a)"><path stroke-linecap="round" transform="matrix(0.471678, 0, 0, -0.471678, 337.877531, 259.175959)" fill="none" stroke-linejoin="round" d="M 0.00291541 0.000376805 L 28.044407 -51.834146 " stroke="#000000" stroke-width="15" stroke-opacity="1" stroke-miterlimit="10"/></g><path stroke-linecap="round" transform="matrix(0.471678, 0, 0, -0.471678, 225.052079, 186.115358)" fill="none" stroke-linejoin="round" d="M -0.00275203 -0.00387832 L -24.897236 -34.47189 L 39.401092 -72.989603 L 61.695155 -18.861077 Z M -0.00275203 -0.00387832 " stroke="#000000" stroke-width="15" stroke-opacity="1" stroke-miterlimit="10"/><path stroke-linecap="round" transform="matrix(0.471678, 0, 0, -0.471678, 283.253424, 186.115358)" fill="none" stroke-linejoin="round" d="M 0.00102178 -0.00387832 L 24.903788 -34.47189 L -39.402822 -72.989603 L -61.696885 -18.861077 Z M 0.00102178 -0.00387832 " stroke="#000000" stroke-width="15" stroke-opacity="1" stroke-miterlimit="10"/><path stroke-linecap="round" transform="matrix(0.471678, 0, 0, -0.471678, 285.165103, 185.403122)" fill="none" stroke-linejoin="round" d="M -0.00220675 0.00165044 L -44.267349 -16.495293 C -58.130744 -21.66301 -73.368885 -21.66301 -87.232281 -16.495293 L -131.497423 0.00165044 C -155.721098 9.028592 -171.79568 32.241912 -171.79568 58.204723 L -171.79568 162.08909 L 40.29605 162.08909 L 40.29605 58.204723 C 40.29605 32.241912 24.221468 9.028592 -0.00220675 0.00165044 Z M -0.00220675 0.00165044 " stroke="#000000" stroke-width="15" stroke-opacity="1" stroke-miterlimit="10"/><path stroke-linecap="round" transform="matrix(0.471678, 0, 0, -0.471678, 204.133145, 108.94927)" fill="none" stroke-linejoin="round" d="M -0.00070598 0.000107903 C -0.00070598 -21.482358 17.332679 -38.898559 38.707484 -38.898559 L 173.382834 -38.898559 C 194.76592 -38.898559 212.091024 -21.482358 212.091024 0.000107903 Z M -0.00070598 0.000107903 " stroke="#000000" stroke-width="15" stroke-opacity="1" stroke-miterlimit="10"/><path stroke-linecap="round" transform="matrix(0.471678, 0, 0, -0.471678, 133.40311, 287.163468)" fill="none" stroke-linejoin="round" d="M 149.953274 407.503061 L 362.045003 407.503061 L 362.045003 377.830095 L 149.953274 377.830095 Z M 149.953274 407.503061 " stroke="#000000" stroke-width="15" stroke-opacity="1" stroke-miterlimit="10"/><g clip-path="url(#8192e9dbc1)"><path stroke-linecap="round" transform="matrix(0.471678, 0, 0, -0.471678, 209.064072, 61.168254)" fill="none" stroke-linejoin="round" d="M -0.00333357 0.000603872 C -19.77979 -5.796515 -29.916466 -27.800721 -21.518926 -46.70761 L -10.45471 -71.626939 L 201.637019 -71.626939 L 212.701234 -46.70761 C 221.098775 -27.800721 210.962099 -5.796515 191.185642 0.000603872 L 113.39659 22.808125 C 101.769227 26.220144 89.413082 26.220144 77.785718 22.808125 L 42.66346 12.630041 " stroke="#000000" stroke-width="15" stroke-opacity="1" stroke-miterlimit="10"/></g><path stroke-linecap="round" transform="matrix(0.471678, 0, 0, -0.471678, 245.591326, 225.012304)" fill="none" stroke-linejoin="round" d="M -0.00314244 0.00124168 L -4.143942 9.47539 L 18.150121 63.603916 L 40.444183 9.47539 L 36.932785 -0.247206 " stroke="#000000" stroke-width="15" stroke-opacity="1" stroke-miterlimit="10"/><g clip-path="url(#2e084d0ea9)"><path stroke-linecap="round" transform="matrix(0.471678, 0, 0, -0.471678, 175.094758, 249.368832)" fill="none" stroke-linejoin="round" d="M -0.00213663 0.00348739 L -37.807632 -72.626129 " stroke="#000000" stroke-width="15" stroke-opacity="1" stroke-miterlimit="10"/></g><path stroke-linecap="round" transform="matrix(0.471678, 0, 0, -0.471678, 175.094758, 249.368832)" fill="none" stroke-linejoin="round" d="M -0.00213663 0.00348739 L -8.399677 -17.180829 C -11.795132 -24.12909 -11.182294 -32.377562 -6.784766 -38.746111 L -6.387249 -39.325822 C -2.387237 -45.122941 4.204915 -48.584649 11.244274 -48.584649 C 13.223576 -48.584649 15.153188 -48.311356 17.008266 -47.789616 " stroke="#000000" stroke-width="15" stroke-opacity="1" stroke-miterlimit="10"/><path stroke-linecap="round" transform="matrix(0.471678, 0, 0, -0.471678, 333.271125, 249.368832)" fill="none" stroke-linejoin="round" d="M -0.00337892 0.00348739 L 8.394162 -17.180829 C 11.797899 -24.12909 11.18506 -32.377562 6.787532 -38.746111 L 6.381733 -39.325822 C 2.390003 -45.122941 -4.202149 -48.584649 -11.241508 -48.584649 C -13.817085 -48.584649 -16.326409 -48.12088 -18.66182 -47.259594 " stroke="#000000" stroke-width="15" stroke-opacity="1" stroke-miterlimit="10"/><path stroke-linecap="round" transform="matrix(0.471678, 0, 0, -0.471678, 262.217507, 283.127326)" fill="none" stroke-linejoin="round" d="M 0.00263467 -0.00334983 C -1.165071 5.371407 -1.769627 10.903515 -1.769627 16.52672 L -1.769627 92.568355 C 50.570073 86.431691 93.559849 49.255596 108.234841 -0.00334983 M -142.432573 -0.00334983 C -127.757581 49.255596 -84.767804 86.431691 -32.428104 92.568355 L -32.428104 16.52672 C -32.428104 10.903515 -33.032661 5.371407 -34.192084 -0.00334983 M 139.978207 -0.00334983 C 135.522708 18.845568 127.76285 36.419119 117.344599 52.063058 M 85.915934 86.978276 C 57.96554 110.183314 22.064812 124.129525 -17.098866 124.129525 C -56.24598 124.129525 -92.146708 110.183314 -120.097102 86.994839 M -151.194504 52.568236 C -161.786668 36.800073 -169.670749 19.052608 -174.167657 -0.00334983 " stroke="#000000" stroke-width="15" stroke-opacity="1" stroke-miterlimit="10"/><path stroke-linecap="round" transform="matrix(0.471678, 0, 0, -0.471678, 175.094758, 249.368832)" fill="none" stroke-linejoin="round" d="M -0.00213663 0.00348739 C -0.00213663 0.00348739 25.207048 -27.814401 47.070468 -16.294698 C 68.933887 -4.766713 67.575705 32.566731 58.615015 36.575025 C 46.093239 42.181667 12.26291 24.285133 -0.00213663 0.00348739 Z M -0.00213663 0.00348739 " stroke="#000000" stroke-width="15" stroke-opacity="1" stroke-miterlimit="10"/><path stroke-linecap="round" transform="matrix(0.471678, 0, 0, -0.471678, 333.271125, 249.368832)" fill="none" stroke-linejoin="round" d="M -0.00337892 0.00348739 C -0.00337892 0.00348739 -25.204282 -27.814401 -47.067701 -16.294698 C -68.939402 -4.766713 -67.572939 32.566731 -58.620531 36.575025 C -46.090473 42.181667 -12.260144 24.285133 -0.00337892 0.00348739 Z M -0.00337892 0.00348739 " stroke="#000000" stroke-width="15" stroke-opacity="1" stroke-miterlimit="10"/><path stroke-linecap="round" transform="matrix(0.471678, 0, 0, -0.471678, 241.601386, 164.865311)" fill="none" stroke-linejoin="round" d="M 0.000373698 -0.00397883 C 14.708492 -16.004027 38.509805 -16.004027 53.217924 -0.00397883 " stroke="#000000" stroke-width="15" stroke-opacity="1" stroke-miterlimit="10"/></svg>